<svg width="13" height="18" viewBox="0 0 13 18" fill="none" xmlns="http://www.w3.org/2000/svg">
<rect width="13" height="18" fill="white"/>
<path d="M5.08 3.42V3.964H3.24V1.432H3.88V3.42H5.08ZM7.68109 3.952V3.964H7.00109C6.98243 3.9 6.95976 3.82667 6.93309 3.744C6.90909 3.66133 6.88243 3.57333 6.85309 3.48H5.98909C5.93576 3.66667 5.88643 3.828 5.84109 3.964H5.16109V3.956L5.98109 1.432H6.86109L7.68109 3.952ZM6.41309 1.888C6.38643 2.024 6.34776 2.18933 6.29709 2.384C6.24643 2.57867 6.19309 2.77733 6.13709 2.98H6.70909C6.65043 2.77733 6.59576 2.57867 6.54509 2.384C6.49443 2.18933 6.45576 2.024 6.42909 1.888H6.41309ZM10.1067 3.316C10.1067 3.52933 10.04 3.69067 9.90666 3.8C9.77599 3.90933 9.54399 3.964 9.21066 3.964H7.96266V1.432H8.11866H9.17066C9.39199 1.432 9.56399 1.456 9.68666 1.504C9.81199 1.54933 9.89999 1.61733 9.95066 1.708C10.0013 1.79867 10.0267 1.912 10.0267 2.048C10.0267 2.23467 9.98132 2.38 9.89066 2.484C9.80266 2.58533 9.63599 2.64667 9.39066 2.668V2.68C9.57199 2.69333 9.71466 2.724 9.81866 2.772C9.92266 2.81733 9.99599 2.884 10.0387 2.972C10.084 3.06 10.1067 3.17467 10.1067 3.316ZM8.99466 1.936H8.60266V2.432H8.99466C9.12532 2.432 9.21999 2.416 9.27866 2.384C9.33732 2.34933 9.36666 2.28267 9.36666 2.184C9.36666 2.088 9.33732 2.02267 9.27866 1.988C9.21999 1.95333 9.12532 1.936 8.99466 1.936ZM9.07466 2.956H8.60266V3.464H9.07466C9.20532 3.464 9.29999 3.44667 9.35866 3.412C9.41732 3.37467 9.44666 3.30667 9.44666 3.208C9.44666 3.10667 9.41732 3.04 9.35866 3.008C9.29999 2.97333 9.20532 2.956 9.07466 2.956Z" fill="black"/>
<rect x="1.3866" y="7.71423" width="2.6" height="3.08571" rx="1" fill="#D9D9D9"/>
<rect x="8.66663" y="7.71423" width="2.6" height="3.08571" rx="1" fill="#D9D9D9"/>
<rect x="5.02661" y="7.71423" width="2.6" height="3.08571" rx="1" fill="#D9D9D9"/>
<rect x="1.3866" y="11.8286" width="2.6" height="3.08571" rx="1" fill="#D9D9D9"/>
<rect x="8.66663" y="11.8286" width="2.6" height="3.08571" rx="1" fill="#D9D9D9"/>
<rect x="5.02661" y="11.8286" width="2.6" height="3.08571" rx="1" fill="#D9D9D9"/>
</svg>
