<svg width="158" height="108" viewBox="0 0 158 108" fill="none" xmlns="http://www.w3.org/2000/svg">
<g filter="url(#filter0_d_2855_80)">
<rect x="4" width="150" height="100" rx="10" fill="white"/>
</g>
<g filter="url(#filter1_i_2855_80)">
<rect x="12.3334" y="9" width="133.333" height="81.8182" rx="10" fill="#323A45"/>
</g>
<path d="M36.6294 57V42.4545H39.7047V54.4645H45.9405V57H36.6294ZM50.8553 57H47.5598L52.5811 42.4545H56.5442L61.5584 57H58.263L54.6195 45.7784H54.5059L50.8553 57ZM50.6493 51.2827H58.4334V53.6832H50.6493V51.2827ZM63.3091 57V42.4545H69.133C70.2031 42.4545 71.0956 42.6132 71.8105 42.9304C72.5255 43.2476 73.0629 43.688 73.4228 44.2514C73.7826 44.8101 73.9625 45.4541 73.9625 46.1832C73.9625 46.7514 73.8489 47.2509 73.6216 47.6818C73.3944 48.108 73.0819 48.4583 72.6841 48.733C72.2911 49.0028 71.8413 49.1946 71.3347 49.3082V49.4503C71.8887 49.474 72.4071 49.6302 72.8901 49.919C73.3778 50.2079 73.7731 50.6127 74.0762 51.1335C74.3792 51.6496 74.5307 52.2652 74.5307 52.9801C74.5307 53.7519 74.339 54.4408 73.9554 55.0469C73.5766 55.6482 73.0156 56.1241 72.2722 56.4744C71.5288 56.8248 70.6126 57 69.5236 57H63.3091ZM66.3844 54.4858H68.8915C69.7485 54.4858 70.3735 54.3224 70.7665 53.9957C71.1595 53.6643 71.356 53.224 71.356 52.6747C71.356 52.2723 71.2589 51.9171 71.0648 51.6094C70.8707 51.3016 70.5937 51.0601 70.2338 50.8849C69.8787 50.7098 69.455 50.6222 68.9625 50.6222H66.3844V54.4858ZM66.3844 48.5412H68.6642C69.0856 48.5412 69.4597 48.4678 69.7864 48.321C70.1178 48.1695 70.3783 47.9564 70.5676 47.6818C70.7618 47.4072 70.8588 47.0781 70.8588 46.6946C70.8588 46.169 70.6718 45.7453 70.2978 45.4233C69.9284 45.1013 69.4029 44.9403 68.7211 44.9403H66.3844V48.5412ZM87.4036 42.4545V57H84.3283V45.3736H84.2431L80.9121 47.4616V44.7344L84.513 42.4545H87.4036ZM90.6404 54.4432V52.0213L96.7129 42.4545H98.801V45.8068H97.5652L93.737 51.8651V51.9787H102.366V54.4432H90.6404ZM97.622 57V53.7045L97.6788 52.6321V42.4545H100.562V57H97.622ZM116.756 40.26H119.436V49.62H116.756V40.26ZM107.076 50.44H119.436V55.46H109.716V57.32H107.116V53.54H116.796V52.46H107.076V50.44ZM107.116 56.6H119.896V58.66H107.116V56.6ZM108.376 40.68H110.576V42.08C110.576 45.5 108.856 48.6 105.236 49.7L103.956 47.6C107.056 46.66 108.376 44.34 108.376 42.08V40.68ZM108.916 40.68H111.096V42.08C111.096 44.28 112.396 46.44 115.416 47.3L114.136 49.36C110.576 48.32 108.916 45.42 108.916 42.08V40.68Z" fill="white"/>
<defs>
<filter id="filter0_d_2855_80" x="0" y="0" width="158" height="108" filterUnits="userSpaceOnUse" color-interpolation-filters="sRGB">
<feFlood flood-opacity="0" result="BackgroundImageFix"/>
<feColorMatrix in="SourceAlpha" type="matrix" values="0 0 0 0 0 0 0 0 0 0 0 0 0 0 0 0 0 0 127 0" result="hardAlpha"/>
<feOffset dy="4"/>
<feGaussianBlur stdDeviation="2"/>
<feComposite in2="hardAlpha" operator="out"/>
<feColorMatrix type="matrix" values="0 0 0 0 0 0 0 0 0 0 0 0 0 0 0 0 0 0 0.25 0"/>
<feBlend mode="normal" in2="BackgroundImageFix" result="effect1_dropShadow_2855_80"/>
<feBlend mode="normal" in="SourceGraphic" in2="effect1_dropShadow_2855_80" result="shape"/>
</filter>
<filter id="filter1_i_2855_80" x="12.3334" y="9" width="133.333" height="85.8181" filterUnits="userSpaceOnUse" color-interpolation-filters="sRGB">
<feFlood flood-opacity="0" result="BackgroundImageFix"/>
<feBlend mode="normal" in="SourceGraphic" in2="BackgroundImageFix" result="shape"/>
<feColorMatrix in="SourceAlpha" type="matrix" values="0 0 0 0 0 0 0 0 0 0 0 0 0 0 0 0 0 0 127 0" result="hardAlpha"/>
<feOffset dy="4"/>
<feGaussianBlur stdDeviation="2"/>
<feComposite in2="hardAlpha" operator="arithmetic" k2="-1" k3="1"/>
<feColorMatrix type="matrix" values="0 0 0 0 0 0 0 0 0 0 0 0 0 0 0 0 0 0 0.25 0"/>
<feBlend mode="normal" in2="shape" result="effect1_innerShadow_2855_80"/>
</filter>
</defs>
</svg>
