<svg width="158" height="108" viewBox="0 0 158 108" fill="none" xmlns="http://www.w3.org/2000/svg">
<g filter="url(#filter0_d_2855_86)">
<rect x="4" width="150" height="100" rx="10" fill="#3CB0B8"/>
</g>
<g filter="url(#filter1_i_2855_86)">
<rect x="12.3334" y="9" width="133.333" height="81.8182" rx="10" fill="#323A45"/>
</g>
<path d="M37.2955 57V42.4545H40.3707V54.4645H46.6065V57H37.2955ZM51.5213 57H48.2259L53.2472 42.4545H57.2102L62.2244 57H58.929L55.2855 45.7784H55.1719L51.5213 57ZM51.3153 51.2827H59.0994V53.6832H51.3153V51.2827ZM63.9751 57V42.4545H69.799C70.8691 42.4545 71.7616 42.6132 72.4766 42.9304C73.1915 43.2476 73.7289 43.688 74.0888 44.2514C74.4486 44.8101 74.6286 45.4541 74.6286 46.1832C74.6286 46.7514 74.5149 47.2509 74.2876 47.6818C74.0604 48.108 73.7479 48.4583 73.3501 48.733C72.9571 49.0028 72.5073 49.1946 72.0007 49.3082V49.4503C72.5547 49.474 73.0732 49.6302 73.5561 49.919C74.0438 50.2079 74.4392 50.6127 74.7422 51.1335C75.0452 51.6496 75.1967 52.2652 75.1967 52.9801C75.1967 53.7519 75.005 54.4408 74.6214 55.0469C74.2427 55.6482 73.6816 56.1241 72.9382 56.4744C72.1948 56.8248 71.2786 57 70.1896 57H63.9751ZM67.0504 54.4858H69.5575C70.4145 54.4858 71.0395 54.3224 71.4325 53.9957C71.8255 53.6643 72.022 53.224 72.022 52.6747C72.022 52.2723 71.925 51.9171 71.7308 51.6094C71.5367 51.3016 71.2597 51.0601 70.8999 50.8849C70.5447 50.7098 70.121 50.6222 69.6286 50.6222H67.0504V54.4858ZM67.0504 48.5412H69.3303C69.7517 48.5412 70.1257 48.4678 70.4524 48.321C70.7839 48.1695 71.0443 47.9564 71.2337 47.6818C71.4278 47.4072 71.5249 47.0781 71.5249 46.6946C71.5249 46.169 71.3378 45.7453 70.9638 45.4233C70.5945 45.1013 70.0689 44.9403 69.3871 44.9403H67.0504V48.5412ZM88.0696 42.4545V57H84.9943V45.3736H84.9091L81.5781 47.4616V44.7344L85.179 42.4545H88.0696ZM96.9528 57.1989C95.859 57.1989 94.886 57.0213 94.0337 56.6662C93.1862 56.3063 92.521 55.8163 92.038 55.196C91.555 54.5758 91.3136 53.8726 91.3136 53.0866C91.3136 52.4806 91.4509 51.9242 91.7255 51.4176C92.0049 50.9062 92.3836 50.4825 92.8619 50.1463C93.3401 49.8054 93.8751 49.5876 94.467 49.4929V49.3935C93.6905 49.2372 93.0607 48.8608 92.5778 48.2642C92.0948 47.6629 91.8533 46.9645 91.8533 46.169C91.8533 45.4162 92.0735 44.7462 92.5138 44.1591C92.9542 43.5672 93.5579 43.1032 94.3249 42.767C95.0967 42.4261 95.9727 42.2557 96.9528 42.2557C97.9329 42.2557 98.8065 42.4261 99.5735 42.767C100.345 43.108 100.951 43.5743 101.392 44.1662C101.832 44.7533 102.055 45.4209 102.059 46.169C102.055 46.9692 101.808 47.6676 101.321 48.2642C100.833 48.8608 100.208 49.2372 99.4457 49.3935V49.4929C100.028 49.5876 100.556 49.8054 101.029 50.1463C101.508 50.4825 101.886 50.9062 102.166 51.4176C102.45 51.9242 102.594 52.4806 102.599 53.0866C102.594 53.8726 102.35 54.5758 101.868 55.196C101.385 55.8163 100.717 56.3063 99.8647 56.6662C99.0172 57.0213 98.0465 57.1989 96.9528 57.1989ZM96.9528 54.9403C97.4405 54.9403 97.8666 54.8527 98.2312 54.6776C98.5958 54.4976 98.8799 54.2514 99.0835 53.9389C99.2918 53.6217 99.396 53.2571 99.396 52.8452C99.396 52.4238 99.2894 52.0521 99.0763 51.7301C98.8633 51.4034 98.5745 51.1477 98.2099 50.9631C97.8453 50.7737 97.4263 50.679 96.9528 50.679C96.484 50.679 96.065 50.7737 95.6957 50.9631C95.3263 51.1477 95.0352 51.4034 94.8221 51.7301C94.6138 52.0521 94.5096 52.4238 94.5096 52.8452C94.5096 53.2571 94.6114 53.6217 94.815 53.9389C95.0186 54.2514 95.305 54.4976 95.6744 54.6776C96.0437 54.8527 96.4698 54.9403 96.9528 54.9403ZM96.9528 48.4418C97.36 48.4418 97.7222 48.3589 98.0394 48.1932C98.3567 48.0275 98.6052 47.7978 98.7852 47.5043C98.9651 47.2107 99.055 46.8722 99.055 46.4886C99.055 46.1098 98.9651 45.7784 98.7852 45.4943C98.6052 45.2055 98.359 44.9806 98.0465 44.8196C97.734 44.6539 97.3694 44.571 96.9528 44.571C96.5408 44.571 96.1763 44.6539 95.859 44.8196C95.5418 44.9806 95.2932 45.2055 95.1133 45.4943C94.9381 45.7784 94.8505 46.1098 94.8505 46.4886C94.8505 46.8722 94.9405 47.2107 95.1204 47.5043C95.3003 47.7978 95.5489 48.0275 95.8661 48.1932C96.1834 48.3589 96.5456 48.4418 96.9528 48.4418ZM117.09 40.26H119.77V49.62H117.09V40.26ZM107.41 50.44H119.77V55.46H110.05V57.32H107.45V53.54H117.13V52.46H107.41V50.44ZM107.45 56.6H120.23V58.66H107.45V56.6ZM108.71 40.68H110.91V42.08C110.91 45.5 109.19 48.6 105.57 49.7L104.29 47.6C107.39 46.66 108.71 44.34 108.71 42.08V40.68ZM109.25 40.68H111.43V42.08C111.43 44.28 112.73 46.44 115.75 47.3L114.47 49.36C110.91 48.32 109.25 45.42 109.25 42.08V40.68Z" fill="white"/>
<defs>
<filter id="filter0_d_2855_86" x="0" y="0" width="158" height="108" filterUnits="userSpaceOnUse" color-interpolation-filters="sRGB">
<feFlood flood-opacity="0" result="BackgroundImageFix"/>
<feColorMatrix in="SourceAlpha" type="matrix" values="0 0 0 0 0 0 0 0 0 0 0 0 0 0 0 0 0 0 127 0" result="hardAlpha"/>
<feOffset dy="4"/>
<feGaussianBlur stdDeviation="2"/>
<feComposite in2="hardAlpha" operator="out"/>
<feColorMatrix type="matrix" values="0 0 0 0 0 0 0 0 0 0 0 0 0 0 0 0 0 0 0.25 0"/>
<feBlend mode="normal" in2="BackgroundImageFix" result="effect1_dropShadow_2855_86"/>
<feBlend mode="normal" in="SourceGraphic" in2="effect1_dropShadow_2855_86" result="shape"/>
</filter>
<filter id="filter1_i_2855_86" x="12.3334" y="9" width="133.333" height="85.8181" filterUnits="userSpaceOnUse" color-interpolation-filters="sRGB">
<feFlood flood-opacity="0" result="BackgroundImageFix"/>
<feBlend mode="normal" in="SourceGraphic" in2="BackgroundImageFix" result="shape"/>
<feColorMatrix in="SourceAlpha" type="matrix" values="0 0 0 0 0 0 0 0 0 0 0 0 0 0 0 0 0 0 127 0" result="hardAlpha"/>
<feOffset dy="4"/>
<feGaussianBlur stdDeviation="2"/>
<feComposite in2="hardAlpha" operator="arithmetic" k2="-1" k3="1"/>
<feColorMatrix type="matrix" values="0 0 0 0 0 0 0 0 0 0 0 0 0 0 0 0 0 0 0.25 0"/>
<feBlend mode="normal" in2="shape" result="effect1_innerShadow_2855_86"/>
</filter>
</defs>
</svg>
