<svg width="158" height="108" viewBox="0 0 158 108" fill="none" xmlns="http://www.w3.org/2000/svg">
<g filter="url(#filter0_d_2855_82)">
<rect x="4" width="150" height="100" rx="10" fill="white" fill-opacity="0.866667" shape-rendering="crispEdges"/>
</g>
<g filter="url(#filter1_i_2855_82)">
<rect x="12.3333" y="9" width="133.333" height="81.8182" rx="10" fill="#323A45"/>
</g>
<path d="M39.3052 57V42.4545H42.3805V54.4645H48.6163V57H39.3052ZM53.5311 57H50.2356L55.2569 42.4545H59.22L64.2342 57H60.9387L57.2953 45.7784H57.1816L53.5311 57ZM53.3251 51.2827H61.1092V53.6832H53.3251V51.2827ZM65.9849 57V42.4545H71.8088C72.8788 42.4545 73.7714 42.6132 74.4863 42.9304C75.2013 43.2476 75.7387 43.688 76.0985 44.2514C76.4584 44.8101 76.6383 45.4541 76.6383 46.1832C76.6383 46.7514 76.5247 47.2509 76.2974 47.6818C76.0701 48.108 75.7576 48.4583 75.3599 48.733C74.9669 49.0028 74.5171 49.1946 74.0105 49.3082V49.4503C74.5645 49.474 75.0829 49.6302 75.5659 49.919C76.0536 50.2079 76.4489 50.6127 76.752 51.1335C77.055 51.6496 77.2065 52.2652 77.2065 52.9801C77.2065 53.7519 77.0147 54.4408 76.6312 55.0469C76.2524 55.6482 75.6913 56.1241 74.948 56.4744C74.2046 56.8248 73.2884 57 72.1994 57H65.9849ZM69.0602 54.4858H71.5673C72.4243 54.4858 73.0493 54.3224 73.4423 53.9957C73.8353 53.6643 74.0318 53.224 74.0318 52.6747C74.0318 52.2723 73.9347 51.9171 73.7406 51.6094C73.5465 51.3016 73.2695 51.0601 72.9096 50.8849C72.5545 50.7098 72.1307 50.6222 71.6383 50.6222H69.0602V54.4858ZM69.0602 48.5412H71.34C71.7614 48.5412 72.1355 48.4678 72.4622 48.321C72.7936 48.1695 73.054 47.9564 73.2434 47.6818C73.4376 47.4072 73.5346 47.0781 73.5346 46.6946C73.5346 46.169 73.3476 45.7453 72.9735 45.4233C72.6042 45.1013 72.0787 44.9403 71.3968 44.9403H69.0602V48.5412ZM90.0794 42.4545V57H87.0041V45.3736H86.9189L83.5879 47.4616V44.7344L87.1887 42.4545H90.0794ZM99.1188 57.1989C98.3707 57.1941 97.6486 57.0687 96.9526 56.8224C96.2613 56.5762 95.641 56.1761 95.0918 55.6222C94.5426 55.0682 94.1069 54.3343 93.785 53.4205C93.4677 52.5066 93.3091 51.3845 93.3091 50.054C93.3139 48.8324 93.4535 47.741 93.7282 46.7798C94.0075 45.8139 94.4052 44.9948 94.9213 44.3224C95.4422 43.6501 96.0648 43.1387 96.7892 42.7884C97.5137 42.4332 98.3257 42.2557 99.2253 42.2557C100.196 42.2557 101.053 42.4451 101.796 42.8239C102.54 43.1979 103.136 43.7069 103.586 44.3509C104.041 44.9948 104.315 45.7169 104.41 46.517H101.377C101.259 46.0104 101.01 45.6127 100.632 45.3239C100.253 45.035 99.784 44.8906 99.2253 44.8906C98.2783 44.8906 97.5587 45.3026 97.0662 46.1264C96.5785 46.9503 96.33 48.0701 96.3205 49.4858H96.4199C96.6377 49.0549 96.9313 48.688 97.3006 48.3849C97.6747 48.0772 98.0984 47.8428 98.5719 47.6818C99.0501 47.5161 99.5544 47.4332 100.085 47.4332C100.946 47.4332 101.713 47.6368 102.386 48.044C103.058 48.4465 103.588 49.0005 103.977 49.706C104.365 50.4115 104.559 51.2187 104.559 52.1278C104.559 53.1127 104.329 53.9886 103.87 54.7557C103.416 55.5227 102.779 56.1241 101.96 56.5597C101.145 56.9905 100.198 57.2036 99.1188 57.1989ZM99.1046 54.7841C99.5781 54.7841 100.002 54.6705 100.376 54.4432C100.75 54.2159 101.044 53.9081 101.257 53.5199C101.47 53.1316 101.576 52.696 101.576 52.2131C101.576 51.7301 101.47 51.2969 101.257 50.9134C101.048 50.5298 100.759 50.2244 100.39 49.9972C100.021 49.7699 99.5994 49.6562 99.1259 49.6562C98.7708 49.6562 98.4417 49.7225 98.1387 49.8551C97.8404 49.9877 97.5776 50.1723 97.3503 50.4091C97.1278 50.6458 96.9526 50.9205 96.8248 51.233C96.6969 51.5407 96.633 51.8698 96.633 52.2202C96.633 52.6889 96.7395 53.1174 96.9526 53.5057C97.1704 53.8939 97.464 54.2041 97.8333 54.4361C98.2073 54.6681 98.6311 54.7841 99.1046 54.7841ZM119.081 40.26H121.761V49.62H119.081V40.26ZM109.401 50.44H121.761V55.46H112.041V57.32H109.441V53.54H119.121V52.46H109.401V50.44ZM109.441 56.6H122.221V58.66H109.441V56.6ZM110.701 40.68H112.901V42.08C112.901 45.5 111.181 48.6 107.561 49.7L106.281 47.6C109.381 46.66 110.701 44.34 110.701 42.08V40.68ZM111.241 40.68H113.421V42.08C113.421 44.28 114.721 46.44 117.741 47.3L116.461 49.36C112.901 48.32 111.241 45.42 111.241 42.08V40.68Z" fill="white"/>
<defs>
<filter id="filter0_d_2855_82" x="0" y="0" width="158" height="108" filterUnits="userSpaceOnUse" color-interpolation-filters="sRGB">
<feFlood flood-opacity="0" result="BackgroundImageFix"/>
<feColorMatrix in="SourceAlpha" type="matrix" values="0 0 0 0 0 0 0 0 0 0 0 0 0 0 0 0 0 0 127 0" result="hardAlpha"/>
<feOffset dy="4"/>
<feGaussianBlur stdDeviation="2"/>
<feComposite in2="hardAlpha" operator="out"/>
<feColorMatrix type="matrix" values="0 0 0 0 0 0 0 0 0 0 0 0 0 0 0 0 0 0 0.25 0"/>
<feBlend mode="normal" in2="BackgroundImageFix" result="effect1_dropShadow_2855_82"/>
<feBlend mode="normal" in="SourceGraphic" in2="effect1_dropShadow_2855_82" result="shape"/>
</filter>
<filter id="filter1_i_2855_82" x="12.3333" y="9" width="133.333" height="85.8181" filterUnits="userSpaceOnUse" color-interpolation-filters="sRGB">
<feFlood flood-opacity="0" result="BackgroundImageFix"/>
<feBlend mode="normal" in="SourceGraphic" in2="BackgroundImageFix" result="shape"/>
<feColorMatrix in="SourceAlpha" type="matrix" values="0 0 0 0 0 0 0 0 0 0 0 0 0 0 0 0 0 0 127 0" result="hardAlpha"/>
<feOffset dy="4"/>
<feGaussianBlur stdDeviation="2"/>
<feComposite in2="hardAlpha" operator="arithmetic" k2="-1" k3="1"/>
<feColorMatrix type="matrix" values="0 0 0 0 0 0 0 0 0 0 0 0 0 0 0 0 0 0 0.25 0"/>
<feBlend mode="normal" in2="shape" result="effect1_innerShadow_2855_82"/>
</filter>
</defs>
</svg>
