<svg width="158" height="108" viewBox="0 0 158 108" fill="none" xmlns="http://www.w3.org/2000/svg">
<g filter="url(#filter0_d_2855_78)">
<rect x="4" width="150" height="100" rx="10" fill="white" fill-opacity="0.866667" shape-rendering="crispEdges"/>
</g>
<g filter="url(#filter1_i_2855_78)">
<rect x="12.3334" y="9" width="133.333" height="81.8182" rx="10" fill="#323A45"/>
</g>
<path d="M36.608 57V42.4545H39.6832V54.4645H45.919V57H36.608ZM50.8338 57H47.5384L52.5597 42.4545H56.5227L61.5369 57H58.2415L54.598 45.7784H54.4844L50.8338 57ZM50.6278 51.2827H58.4119V53.6832H50.6278V51.2827ZM63.2876 57V42.4545H69.1115C70.1816 42.4545 71.0741 42.6132 71.7891 42.9304C72.504 43.2476 73.0414 43.688 73.4013 44.2514C73.7611 44.8101 73.9411 45.4541 73.9411 46.1832C73.9411 46.7514 73.8274 47.2509 73.6001 47.6818C73.3729 48.108 73.0604 48.4583 72.6626 48.733C72.2696 49.0028 71.8198 49.1946 71.3132 49.3082V49.4503C71.8672 49.474 72.3857 49.6302 72.8686 49.919C73.3563 50.2079 73.7517 50.6127 74.0547 51.1335C74.3577 51.6496 74.5092 52.2652 74.5092 52.9801C74.5092 53.7519 74.3175 54.4408 73.9339 55.0469C73.5552 55.6482 72.9941 56.1241 72.2507 56.4744C71.5073 56.8248 70.5911 57 69.5021 57H63.2876ZM66.3629 54.4858H68.87C69.727 54.4858 70.352 54.3224 70.745 53.9957C71.138 53.6643 71.3345 53.224 71.3345 52.6747C71.3345 52.2723 71.2375 51.9171 71.0433 51.6094C70.8492 51.3016 70.5722 51.0601 70.2124 50.8849C69.8572 50.7098 69.4335 50.6222 68.9411 50.6222H66.3629V54.4858ZM66.3629 48.5412H68.6428C69.0642 48.5412 69.4382 48.4678 69.7649 48.321C70.0964 48.1695 70.3568 47.9564 70.5462 47.6818C70.7403 47.4072 70.8374 47.0781 70.8374 46.6946C70.8374 46.169 70.6503 45.7453 70.2763 45.4233C69.907 45.1013 69.3814 44.9403 68.6996 44.9403H66.3629V48.5412ZM87.3821 42.4545V57H84.3068V45.3736H84.2216L80.8906 47.4616V44.7344L84.4915 42.4545H87.3821ZM90.8391 57V54.7841L96.0167 49.9901C96.457 49.5639 96.8263 49.1804 97.1246 48.8395C97.4277 48.4986 97.6573 48.1648 97.8136 47.8381C97.9698 47.5066 98.0479 47.1491 98.0479 46.7656C98.0479 46.3395 97.9509 45.9725 97.7567 45.6648C97.5626 45.3523 97.2975 45.1132 96.9613 44.9474C96.6251 44.777 96.244 44.6918 95.8178 44.6918C95.3728 44.6918 94.9845 44.7817 94.6531 44.9616C94.3216 45.1416 94.0659 45.3996 93.886 45.7358C93.7061 46.072 93.6161 46.4721 93.6161 46.9361H90.6971C90.6971 45.9844 90.9125 45.1581 91.3434 44.4574C91.7743 43.7566 92.378 43.2145 93.1545 42.831C93.931 42.4474 94.8259 42.2557 95.8391 42.2557C96.8808 42.2557 97.7875 42.4403 98.5593 42.8097C99.3358 43.1742 99.9395 43.6809 100.37 44.3295C100.801 44.9782 101.017 45.7216 101.017 46.5597C101.017 47.1089 100.908 47.651 100.69 48.1861C100.477 48.7211 100.096 49.3153 99.5465 49.9688C98.9973 50.6174 98.2231 51.3963 97.2241 52.3054L95.1005 54.3864V54.4858H101.208V57H90.8391ZM115.778 40.26H118.458V49.62H115.778V40.26ZM106.098 50.44H118.458V55.46H108.738V57.32H106.138V53.54H115.818V52.46H106.098V50.44ZM106.138 56.6H118.918V58.66H106.138V56.6ZM107.398 40.68H109.598V42.08C109.598 45.5 107.878 48.6 104.258 49.7L102.978 47.6C106.078 46.66 107.398 44.34 107.398 42.08V40.68ZM107.938 40.68H110.118V42.08C110.118 44.28 111.418 46.44 114.438 47.3L113.158 49.36C109.598 48.32 107.938 45.42 107.938 42.08V40.68Z" fill="white"/>
<defs>
<filter id="filter0_d_2855_78" x="0" y="0" width="158" height="108" filterUnits="userSpaceOnUse" color-interpolation-filters="sRGB">
<feFlood flood-opacity="0" result="BackgroundImageFix"/>
<feColorMatrix in="SourceAlpha" type="matrix" values="0 0 0 0 0 0 0 0 0 0 0 0 0 0 0 0 0 0 127 0" result="hardAlpha"/>
<feOffset dy="4"/>
<feGaussianBlur stdDeviation="2"/>
<feComposite in2="hardAlpha" operator="out"/>
<feColorMatrix type="matrix" values="0 0 0 0 0 0 0 0 0 0 0 0 0 0 0 0 0 0 0.25 0"/>
<feBlend mode="normal" in2="BackgroundImageFix" result="effect1_dropShadow_2855_78"/>
<feBlend mode="normal" in="SourceGraphic" in2="effect1_dropShadow_2855_78" result="shape"/>
</filter>
<filter id="filter1_i_2855_78" x="12.3334" y="9" width="133.333" height="85.8181" filterUnits="userSpaceOnUse" color-interpolation-filters="sRGB">
<feFlood flood-opacity="0" result="BackgroundImageFix"/>
<feBlend mode="normal" in="SourceGraphic" in2="BackgroundImageFix" result="shape"/>
<feColorMatrix in="SourceAlpha" type="matrix" values="0 0 0 0 0 0 0 0 0 0 0 0 0 0 0 0 0 0 127 0" result="hardAlpha"/>
<feOffset dy="4"/>
<feGaussianBlur stdDeviation="2"/>
<feComposite in2="hardAlpha" operator="arithmetic" k2="-1" k3="1"/>
<feColorMatrix type="matrix" values="0 0 0 0 0 0 0 0 0 0 0 0 0 0 0 0 0 0 0.25 0"/>
<feBlend mode="normal" in2="shape" result="effect1_innerShadow_2855_78"/>
</filter>
</defs>
</svg>
