<svg width="158" height="108" viewBox="0 0 158 108" fill="none" xmlns="http://www.w3.org/2000/svg">
<g filter="url(#filter0_d_2855_85)">
<rect x="4" width="150" height="100" rx="10" fill="white" fill-opacity="0.866667" shape-rendering="crispEdges"/>
</g>
<g filter="url(#filter1_i_2855_85)">
<rect x="12.3334" y="9" width="133.333" height="81.8182" rx="10" fill="#323A45"/>
</g>
<path d="M37.3052 57V42.4545H40.3805V54.4645H46.6163V57H37.3052ZM51.5311 57H48.2356L53.2569 42.4545H57.22L62.2342 57H58.9387L55.2953 45.7784H55.1816L51.5311 57ZM51.3251 51.2827H59.1092V53.6832H51.3251V51.2827ZM63.9849 57V42.4545H69.8088C70.8788 42.4545 71.7714 42.6132 72.4863 42.9304C73.2013 43.2476 73.7387 43.688 74.0985 44.2514C74.4584 44.8101 74.6383 45.4541 74.6383 46.1832C74.6383 46.7514 74.5247 47.2509 74.2974 47.6818C74.0701 48.108 73.7576 48.4583 73.3599 48.733C72.9669 49.0028 72.5171 49.1946 72.0105 49.3082V49.4503C72.5645 49.474 73.0829 49.6302 73.5659 49.919C74.0536 50.2079 74.4489 50.6127 74.752 51.1335C75.055 51.6496 75.2065 52.2652 75.2065 52.9801C75.2065 53.7519 75.0147 54.4408 74.6312 55.0469C74.2524 55.6482 73.6913 56.1241 72.948 56.4744C72.2046 56.8248 71.2884 57 70.1994 57H63.9849ZM67.0602 54.4858H69.5673C70.4243 54.4858 71.0493 54.3224 71.4423 53.9957C71.8353 53.6643 72.0318 53.224 72.0318 52.6747C72.0318 52.2723 71.9347 51.9171 71.7406 51.6094C71.5465 51.3016 71.2695 51.0601 70.9096 50.8849C70.5545 50.7098 70.1307 50.6222 69.6383 50.6222H67.0602V54.4858ZM67.0602 48.5412H69.34C69.7614 48.5412 70.1355 48.4678 70.4622 48.321C70.7936 48.1695 71.054 47.9564 71.2434 47.6818C71.4376 47.4072 71.5346 47.0781 71.5346 46.6946C71.5346 46.169 71.3476 45.7453 70.9735 45.4233C70.6042 45.1013 70.0787 44.9403 69.3968 44.9403H67.0602V48.5412ZM88.0794 42.4545V57H85.0041V45.3736H84.9189L81.5879 47.4616V44.7344L85.1887 42.4545H88.0794ZM96.7992 42.2557C97.5473 42.2557 98.267 42.3812 98.9583 42.6321C99.6543 42.883 100.275 43.2831 100.819 43.8324C101.368 44.3816 101.802 45.1108 102.119 46.0199C102.441 46.9242 102.604 48.0346 102.609 49.3509C102.609 50.5866 102.469 51.6899 102.19 52.6605C101.915 53.6264 101.52 54.4479 101.004 55.125C100.488 55.8021 99.865 56.3182 99.1358 56.6733C98.4067 57.0237 97.5923 57.1989 96.6926 57.1989C95.722 57.1989 94.865 57.0118 94.1216 56.6378C93.3783 56.259 92.7793 55.7453 92.3248 55.0966C91.8749 54.4432 91.6027 53.7093 91.508 52.8949H94.5407C94.659 53.4252 94.9076 53.8371 95.2864 54.1307C95.6652 54.4195 96.1339 54.5639 96.6926 54.5639C97.6396 54.5639 98.3593 54.152 98.8517 53.3281C99.3442 52.4995 99.5927 51.3655 99.5975 49.9261H99.498C99.2802 50.3523 98.9867 50.7192 98.6174 51.027C98.248 51.33 97.8243 51.5644 97.3461 51.7301C96.8726 51.8958 96.3683 51.9787 95.8333 51.9787C94.9763 51.9787 94.2116 51.7775 93.5392 51.375C92.8669 50.9725 92.3366 50.4186 91.9483 49.7131C91.5601 49.0076 91.3659 48.2027 91.3659 47.2983C91.3612 46.3229 91.5861 45.4541 92.0407 44.6918C92.4952 43.9295 93.1297 43.3329 93.9441 42.902C94.7632 42.4664 95.7149 42.2509 96.7992 42.2557ZM96.8205 44.6705C96.3423 44.6705 95.9161 44.7841 95.5421 45.0114C95.1728 45.2386 94.8792 45.544 94.6614 45.9276C94.4483 46.3111 94.3442 46.7396 94.3489 47.2131C94.3489 47.6913 94.4531 48.1222 94.6614 48.5057C94.8745 48.8845 95.1633 49.1875 95.5279 49.4148C95.8972 49.6373 96.3186 49.7486 96.7921 49.7486C97.1472 49.7486 97.4763 49.6823 97.7793 49.5497C98.0823 49.4171 98.3451 49.2348 98.5676 49.0028C98.7949 48.7661 98.9725 48.4938 99.1003 48.1861C99.2282 47.8783 99.2921 47.5516 99.2921 47.206C99.2873 46.7467 99.1784 46.3253 98.9654 45.9418C98.7523 45.5582 98.4587 45.2505 98.0847 45.0185C97.7106 44.7865 97.2892 44.6705 96.8205 44.6705ZM117.081 40.26H119.761V49.62H117.081V40.26ZM107.401 50.44H119.761V55.46H110.041V57.32H107.441V53.54H117.121V52.46H107.401V50.44ZM107.441 56.6H120.221V58.66H107.441V56.6ZM108.701 40.68H110.901V42.08C110.901 45.5 109.181 48.6 105.561 49.7L104.281 47.6C107.381 46.66 108.701 44.34 108.701 42.08V40.68ZM109.241 40.68H111.421V42.08C111.421 44.28 112.721 46.44 115.741 47.3L114.461 49.36C110.901 48.32 109.241 45.42 109.241 42.08V40.68Z" fill="white"/>
<defs>
<filter id="filter0_d_2855_85" x="0" y="0" width="158" height="108" filterUnits="userSpaceOnUse" color-interpolation-filters="sRGB">
<feFlood flood-opacity="0" result="BackgroundImageFix"/>
<feColorMatrix in="SourceAlpha" type="matrix" values="0 0 0 0 0 0 0 0 0 0 0 0 0 0 0 0 0 0 127 0" result="hardAlpha"/>
<feOffset dy="4"/>
<feGaussianBlur stdDeviation="2"/>
<feComposite in2="hardAlpha" operator="out"/>
<feColorMatrix type="matrix" values="0 0 0 0 0 0 0 0 0 0 0 0 0 0 0 0 0 0 0.25 0"/>
<feBlend mode="normal" in2="BackgroundImageFix" result="effect1_dropShadow_2855_85"/>
<feBlend mode="normal" in="SourceGraphic" in2="effect1_dropShadow_2855_85" result="shape"/>
</filter>
<filter id="filter1_i_2855_85" x="12.3334" y="9" width="133.333" height="85.8181" filterUnits="userSpaceOnUse" color-interpolation-filters="sRGB">
<feFlood flood-opacity="0" result="BackgroundImageFix"/>
<feBlend mode="normal" in="SourceGraphic" in2="BackgroundImageFix" result="shape"/>
<feColorMatrix in="SourceAlpha" type="matrix" values="0 0 0 0 0 0 0 0 0 0 0 0 0 0 0 0 0 0 127 0" result="hardAlpha"/>
<feOffset dy="4"/>
<feGaussianBlur stdDeviation="2"/>
<feComposite in2="hardAlpha" operator="arithmetic" k2="-1" k3="1"/>
<feColorMatrix type="matrix" values="0 0 0 0 0 0 0 0 0 0 0 0 0 0 0 0 0 0 0.25 0"/>
<feBlend mode="normal" in2="shape" result="effect1_innerShadow_2855_85"/>
</filter>
</defs>
</svg>
