<svg width="158" height="108" viewBox="0 0 158 108" fill="none" xmlns="http://www.w3.org/2000/svg">
<g filter="url(#filter0_d_2855_83)">
<rect x="4" width="150" height="100" rx="10" fill="white" fill-opacity="0.866667" shape-rendering="crispEdges"/>
</g>
<g filter="url(#filter1_i_2855_83)">
<rect x="12.3333" y="9" width="133.333" height="81.8182" rx="10" fill="#323A45"/>
</g>
<path d="M37.608 57V42.4545H40.6832V54.4645H46.919V57H37.608ZM51.8338 57H48.5384L53.5597 42.4545H57.5227L62.5369 57H59.2415L55.598 45.7784H55.4844L51.8338 57ZM51.6278 51.2827H59.4119V53.6832H51.6278V51.2827ZM64.2876 57V42.4545H70.1115C71.1816 42.4545 72.0741 42.6132 72.7891 42.9304C73.504 43.2476 74.0414 43.688 74.4013 44.2514C74.7611 44.8101 74.9411 45.4541 74.9411 46.1832C74.9411 46.7514 74.8274 47.2509 74.6001 47.6818C74.3729 48.108 74.0604 48.4583 73.6626 48.733C73.2696 49.0028 72.8198 49.1946 72.3132 49.3082V49.4503C72.8672 49.474 73.3857 49.6302 73.8686 49.919C74.3563 50.2079 74.7517 50.6127 75.0547 51.1335C75.3577 51.6496 75.5092 52.2652 75.5092 52.9801C75.5092 53.7519 75.3175 54.4408 74.9339 55.0469C74.5552 55.6482 73.9941 56.1241 73.2507 56.4744C72.5073 56.8248 71.5911 57 70.5021 57H64.2876ZM67.3629 54.4858H69.87C70.727 54.4858 71.352 54.3224 71.745 53.9957C72.138 53.6643 72.3345 53.224 72.3345 52.6747C72.3345 52.2723 72.2375 51.9171 72.0433 51.6094C71.8492 51.3016 71.5722 51.0601 71.2124 50.8849C70.8572 50.7098 70.4335 50.6222 69.9411 50.6222H67.3629V54.4858ZM67.3629 48.5412H69.6428C70.0642 48.5412 70.4382 48.4678 70.7649 48.321C71.0964 48.1695 71.3568 47.9564 71.5462 47.6818C71.7403 47.4072 71.8374 47.0781 71.8374 46.6946C71.8374 46.169 71.6503 45.7453 71.2763 45.4233C70.907 45.1013 70.3814 44.9403 69.6996 44.9403H67.3629V48.5412ZM82.054 57V54.7841L87.2315 49.9901C87.6719 49.5639 88.0412 49.1804 88.3395 48.8395C88.6425 48.4986 88.8722 48.1648 89.0284 47.8381C89.1847 47.5066 89.2628 47.1491 89.2628 46.7656C89.2628 46.3395 89.1657 45.9725 88.9716 45.6648C88.7775 45.3523 88.5123 45.1132 88.1761 44.9474C87.84 44.777 87.4588 44.6918 87.0327 44.6918C86.5876 44.6918 86.1993 44.7817 85.8679 44.9616C85.5365 45.1416 85.2808 45.3996 85.1009 45.7358C84.9209 46.072 84.831 46.4721 84.831 46.9361H81.9119C81.9119 45.9844 82.1274 45.1581 82.5582 44.4574C82.9891 43.7566 83.5928 43.2145 84.3693 42.831C85.1458 42.4474 86.0407 42.2557 87.054 42.2557C88.0956 42.2557 89.0024 42.4403 89.7741 42.8097C90.5507 43.1742 91.1544 43.6809 91.5852 44.3295C92.0161 44.9782 92.2315 45.7216 92.2315 46.5597C92.2315 47.1089 92.1226 47.651 91.9048 48.1861C91.6918 48.7211 91.3106 49.3153 90.7614 49.9688C90.2121 50.6174 89.438 51.3963 88.4389 52.3054L86.3153 54.3864V54.4858H92.4233V57H82.054ZM100.98 42.4545V57H97.9045V45.3736H97.8192L94.4883 47.4616V44.7344L98.0891 42.4545H100.98ZM116.778 40.26H119.458V49.62H116.778V40.26ZM107.098 50.44H119.458V55.46H109.738V57.32H107.138V53.54H116.818V52.46H107.098V50.44ZM107.138 56.6H119.918V58.66H107.138V56.6ZM108.398 40.68H110.598V42.08C110.598 45.5 108.878 48.6 105.258 49.7L103.978 47.6C107.078 46.66 108.398 44.34 108.398 42.08V40.68ZM108.938 40.68H111.118V42.08C111.118 44.28 112.418 46.44 115.438 47.3L114.158 49.36C110.598 48.32 108.938 45.42 108.938 42.08V40.68Z" fill="white"/>
<defs>
<filter id="filter0_d_2855_83" x="0" y="0" width="158" height="108" filterUnits="userSpaceOnUse" color-interpolation-filters="sRGB">
<feFlood flood-opacity="0" result="BackgroundImageFix"/>
<feColorMatrix in="SourceAlpha" type="matrix" values="0 0 0 0 0 0 0 0 0 0 0 0 0 0 0 0 0 0 127 0" result="hardAlpha"/>
<feOffset dy="4"/>
<feGaussianBlur stdDeviation="2"/>
<feComposite in2="hardAlpha" operator="out"/>
<feColorMatrix type="matrix" values="0 0 0 0 0 0 0 0 0 0 0 0 0 0 0 0 0 0 0.25 0"/>
<feBlend mode="normal" in2="BackgroundImageFix" result="effect1_dropShadow_2855_83"/>
<feBlend mode="normal" in="SourceGraphic" in2="effect1_dropShadow_2855_83" result="shape"/>
</filter>
<filter id="filter1_i_2855_83" x="12.3333" y="9" width="133.333" height="85.8181" filterUnits="userSpaceOnUse" color-interpolation-filters="sRGB">
<feFlood flood-opacity="0" result="BackgroundImageFix"/>
<feBlend mode="normal" in="SourceGraphic" in2="BackgroundImageFix" result="shape"/>
<feColorMatrix in="SourceAlpha" type="matrix" values="0 0 0 0 0 0 0 0 0 0 0 0 0 0 0 0 0 0 127 0" result="hardAlpha"/>
<feOffset dy="4"/>
<feGaussianBlur stdDeviation="2"/>
<feComposite in2="hardAlpha" operator="arithmetic" k2="-1" k3="1"/>
<feColorMatrix type="matrix" values="0 0 0 0 0 0 0 0 0 0 0 0 0 0 0 0 0 0 0.25 0"/>
<feBlend mode="normal" in2="shape" result="effect1_innerShadow_2855_83"/>
</filter>
</defs>
</svg>
