<svg width="158" height="108" viewBox="0 0 158 108" fill="none" xmlns="http://www.w3.org/2000/svg">
<g filter="url(#filter0_d_2854_66)">
<rect x="4" width="150" height="100" rx="10" fill="#3CB0B8"/>
</g>
<g filter="url(#filter1_i_2854_66)">
<rect x="12.3334" y="9" width="133.333" height="81.8182" rx="10" fill="#323A45"/>
</g>
<path d="M41.5005 57V42.4545H44.5758V54.4645H50.8116V57H41.5005ZM55.7264 57H52.4309L57.4522 42.4545H61.4153L66.4295 57H63.1341L59.4906 45.7784H59.377L55.7264 57ZM55.5204 51.2827H63.3045V53.6832H55.5204V51.2827ZM68.1802 57V42.4545H74.0041C75.0742 42.4545 75.9667 42.6132 76.6816 42.9304C77.3966 43.2476 77.934 43.688 78.2939 44.2514C78.6537 44.8101 78.8336 45.4541 78.8336 46.1832C78.8336 46.7514 78.72 47.2509 78.4927 47.6818C78.2654 48.108 77.9529 48.4583 77.5552 48.733C77.1622 49.0028 76.7124 49.1946 76.2058 49.3082V49.4503C76.7598 49.474 77.2782 49.6302 77.7612 49.919C78.2489 50.2079 78.6442 50.6127 78.9473 51.1335C79.2503 51.6496 79.4018 52.2652 79.4018 52.9801C79.4018 53.7519 79.2101 54.4408 78.8265 55.0469C78.4477 55.6482 77.8867 56.1241 77.1433 56.4744C76.3999 56.8248 75.4837 57 74.3947 57H68.1802ZM71.2555 54.4858H73.7626C74.6196 54.4858 75.2446 54.3224 75.6376 53.9957C76.0306 53.6643 76.2271 53.224 76.2271 52.6747C76.2271 52.2723 76.13 51.9171 75.9359 51.6094C75.7418 51.3016 75.4648 51.0601 75.1049 50.8849C74.7498 50.7098 74.3261 50.6222 73.8336 50.6222H71.2555V54.4858ZM71.2555 48.5412H73.5353C73.9567 48.5412 74.3308 48.4678 74.6575 48.321C74.9889 48.1695 75.2493 47.9564 75.4387 47.6818C75.6329 47.4072 75.7299 47.0781 75.7299 46.6946C75.7299 46.169 75.5429 45.7453 75.1689 45.4233C74.7995 45.1013 74.274 44.9403 73.5922 44.9403H71.2555V48.5412ZM85.9466 57V54.7841L91.1241 49.9901C91.5645 49.5639 91.9338 49.1804 92.2321 48.8395C92.5351 48.4986 92.7647 48.1648 92.921 47.8381C93.0772 47.5066 93.1554 47.1491 93.1554 46.7656C93.1554 46.3395 93.0583 45.9725 92.8642 45.6648C92.67 45.3523 92.4049 45.1132 92.0687 44.9474C91.7325 44.777 91.3514 44.6918 90.9252 44.6918C90.4802 44.6918 90.0919 44.7817 89.7605 44.9616C89.429 45.1416 89.1734 45.3996 88.9934 45.7358C88.8135 46.072 88.7235 46.4721 88.7235 46.9361H85.8045C85.8045 45.9844 86.0199 45.1581 86.4508 44.4574C86.8817 43.7566 87.4854 43.2145 88.2619 42.831C89.0384 42.4474 89.9333 42.2557 90.9466 42.2557C91.9882 42.2557 92.8949 42.4403 93.6667 42.8097C94.4432 43.1742 95.0469 43.6809 95.4778 44.3295C95.9087 44.9782 96.1241 45.7216 96.1241 46.5597C96.1241 47.1089 96.0152 47.651 95.7974 48.1861C95.5843 48.7211 95.2032 49.3153 94.6539 49.9688C94.1047 50.6174 93.3306 51.3963 92.3315 52.3054L90.2079 54.3864V54.4858H96.3159V57H85.9466ZM110.885 40.26H113.565V49.62H110.885V40.26ZM101.205 50.44H113.565V55.46H103.845V57.32H101.245V53.54H110.925V52.46H101.205V50.44ZM101.245 56.6H114.025V58.66H101.245V56.6ZM102.505 40.68H104.705V42.08C104.705 45.5 102.985 48.6 99.3652 49.7L98.0852 47.6C101.185 46.66 102.505 44.34 102.505 42.08V40.68ZM103.045 40.68H105.225V42.08C105.225 44.28 106.525 46.44 109.545 47.3L108.265 49.36C104.705 48.32 103.045 45.42 103.045 42.08V40.68Z" fill="white"/>
<defs>
<filter id="filter0_d_2854_66" x="0" y="0" width="158" height="108" filterUnits="userSpaceOnUse" color-interpolation-filters="sRGB">
<feFlood flood-opacity="0" result="BackgroundImageFix"/>
<feColorMatrix in="SourceAlpha" type="matrix" values="0 0 0 0 0 0 0 0 0 0 0 0 0 0 0 0 0 0 127 0" result="hardAlpha"/>
<feOffset dy="4"/>
<feGaussianBlur stdDeviation="2"/>
<feComposite in2="hardAlpha" operator="out"/>
<feColorMatrix type="matrix" values="0 0 0 0 0 0 0 0 0 0 0 0 0 0 0 0 0 0 0.25 0"/>
<feBlend mode="normal" in2="BackgroundImageFix" result="effect1_dropShadow_2854_66"/>
<feBlend mode="normal" in="SourceGraphic" in2="effect1_dropShadow_2854_66" result="shape"/>
</filter>
<filter id="filter1_i_2854_66" x="12.3334" y="9" width="133.333" height="85.8181" filterUnits="userSpaceOnUse" color-interpolation-filters="sRGB">
<feFlood flood-opacity="0" result="BackgroundImageFix"/>
<feBlend mode="normal" in="SourceGraphic" in2="BackgroundImageFix" result="shape"/>
<feColorMatrix in="SourceAlpha" type="matrix" values="0 0 0 0 0 0 0 0 0 0 0 0 0 0 0 0 0 0 127 0" result="hardAlpha"/>
<feOffset dy="4"/>
<feGaussianBlur stdDeviation="2"/>
<feComposite in2="hardAlpha" operator="arithmetic" k2="-1" k3="1"/>
<feColorMatrix type="matrix" values="0 0 0 0 0 0 0 0 0 0 0 0 0 0 0 0 0 0 0.25 0"/>
<feBlend mode="normal" in2="shape" result="effect1_innerShadow_2854_66"/>
</filter>
</defs>
</svg>
