<svg width="158" height="108" viewBox="0 0 158 108" fill="none" xmlns="http://www.w3.org/2000/svg">
<g filter="url(#filter0_d_2855_73)">
<rect x="4" width="150" height="100" rx="10" fill="#F6F6F6"/>
</g>
<g filter="url(#filter1_i_2855_73)">
<rect x="12.3334" y="9" width="133.333" height="81.8182" rx="10" fill="#323A45"/>
</g>
<path d="M42.6978 57V42.4545H45.7731V54.4645H52.0089V57H42.6978ZM56.9237 57H53.6282L58.6495 42.4545H62.6126L67.6268 57H64.3313L60.6879 45.7784H60.5742L56.9237 57ZM56.7177 51.2827H64.5018V53.6832H56.7177V51.2827ZM69.3775 57V42.4545H75.2013C76.2714 42.4545 77.1639 42.6132 77.8789 42.9304C78.5939 43.2476 79.1313 43.688 79.4911 44.2514C79.851 44.8101 80.0309 45.4541 80.0309 46.1832C80.0309 46.7514 79.9173 47.2509 79.69 47.6818C79.4627 48.108 79.1502 48.4583 78.7525 48.733C78.3595 49.0028 77.9097 49.1946 77.4031 49.3082V49.4503C77.957 49.474 78.4755 49.6302 78.9585 49.919C79.4461 50.2079 79.8415 50.6127 80.1445 51.1335C80.4476 51.6496 80.5991 52.2652 80.5991 52.9801C80.5991 53.7519 80.4073 54.4408 80.0238 55.0469C79.645 55.6482 79.0839 56.1241 78.3406 56.4744C77.5972 56.8248 76.681 57 75.592 57H69.3775ZM72.4528 54.4858H74.9599C75.8169 54.4858 76.4419 54.3224 76.8349 53.9957C77.2279 53.6643 77.4244 53.224 77.4244 52.6747C77.4244 52.2723 77.3273 51.9171 77.1332 51.6094C76.939 51.3016 76.6621 51.0601 76.3022 50.8849C75.9471 50.7098 75.5233 50.6222 75.0309 50.6222H72.4528V54.4858ZM72.4528 48.5412H74.7326C75.154 48.5412 75.5281 48.4678 75.8548 48.321C76.1862 48.1695 76.4466 47.9564 76.636 47.6818C76.8301 47.4072 76.9272 47.0781 76.9272 46.6946C76.9272 46.169 76.7402 45.7453 76.3661 45.4233C75.9968 45.1013 75.4712 44.9403 74.7894 44.9403H72.4528V48.5412ZM92.7262 57.1989C91.9781 57.1941 91.256 57.0687 90.56 56.8224C89.8687 56.5762 89.2485 56.1761 88.6992 55.6222C88.15 55.0682 87.7144 54.3343 87.3924 53.4205C87.0752 52.5066 86.9165 51.3845 86.9165 50.054C86.9213 48.8324 87.061 47.741 87.3356 46.7798C87.6149 45.8139 88.0127 44.9948 88.5288 44.3224C89.0496 43.6501 89.6722 43.1387 90.3967 42.7884C91.1211 42.4332 91.9331 42.2557 92.8327 42.2557C93.8034 42.2557 94.6604 42.4451 95.4038 42.8239C96.1471 43.1979 96.7437 43.7069 97.1935 44.3509C97.6481 44.9948 97.9227 45.7169 98.0174 46.517H94.9847C94.8664 46.0104 94.6178 45.6127 94.239 45.3239C93.8602 45.035 93.3915 44.8906 92.8327 44.8906C91.8858 44.8906 91.1661 45.3026 90.6737 46.1264C90.186 46.9503 89.9374 48.0701 89.9279 49.4858H90.0273C90.2451 49.0549 90.5387 48.688 90.908 48.3849C91.2821 48.0772 91.7058 47.8428 92.1793 47.6818C92.6576 47.5161 93.1618 47.4332 93.6921 47.4332C94.5539 47.4332 95.3209 47.6368 95.9933 48.044C96.6656 48.4465 97.1959 49.0005 97.5842 49.706C97.9724 50.4115 98.1665 51.2187 98.1665 52.1278C98.1665 53.1127 97.9369 53.9886 97.4776 54.7557C97.0231 55.5227 96.3862 56.1241 95.5671 56.5597C94.7527 56.9905 93.8058 57.2036 92.7262 57.1989ZM92.712 54.7841C93.1855 54.7841 93.6093 54.6705 93.9833 54.4432C94.3574 54.2159 94.6509 53.9081 94.864 53.5199C95.0771 53.1316 95.1836 52.696 95.1836 52.2131C95.1836 51.7301 95.0771 51.2969 94.864 50.9134C94.6557 50.5298 94.3668 50.2244 93.9975 49.9972C93.6282 49.7699 93.2068 49.6562 92.7333 49.6562C92.3782 49.6562 92.0491 49.7225 91.7461 49.8551C91.4478 49.9877 91.185 50.1723 90.9577 50.4091C90.7352 50.6458 90.56 50.9205 90.4322 51.233C90.3043 51.5407 90.2404 51.8698 90.2404 52.2202C90.2404 52.6889 90.3469 53.1174 90.56 53.5057C90.7778 53.8939 91.0714 54.2041 91.4407 54.4361C91.8147 54.6681 92.2385 54.7841 92.712 54.7841ZM112.688 40.26H115.368V49.62H112.688V40.26ZM103.008 50.44H115.368V55.46H105.648V57.32H103.048V53.54H112.728V52.46H103.008V50.44ZM103.048 56.6H115.828V58.66H103.048V56.6ZM104.308 40.68H106.508V42.08C106.508 45.5 104.788 48.6 101.168 49.7L99.888 47.6C102.988 46.66 104.308 44.34 104.308 42.08V40.68ZM104.848 40.68H107.028V42.08C107.028 44.28 108.328 46.44 111.348 47.3L110.068 49.36C106.508 48.32 104.848 45.42 104.848 42.08V40.68Z" fill="white"/>
<defs>
<filter id="filter0_d_2855_73" x="0" y="0" width="158" height="108" filterUnits="userSpaceOnUse" color-interpolation-filters="sRGB">
<feFlood flood-opacity="0" result="BackgroundImageFix"/>
<feColorMatrix in="SourceAlpha" type="matrix" values="0 0 0 0 0 0 0 0 0 0 0 0 0 0 0 0 0 0 127 0" result="hardAlpha"/>
<feOffset dy="4"/>
<feGaussianBlur stdDeviation="2"/>
<feComposite in2="hardAlpha" operator="out"/>
<feColorMatrix type="matrix" values="0 0 0 0 0 0 0 0 0 0 0 0 0 0 0 0 0 0 0.25 0"/>
<feBlend mode="normal" in2="BackgroundImageFix" result="effect1_dropShadow_2855_73"/>
<feBlend mode="normal" in="SourceGraphic" in2="effect1_dropShadow_2855_73" result="shape"/>
</filter>
<filter id="filter1_i_2855_73" x="12.3334" y="9" width="133.333" height="85.8181" filterUnits="userSpaceOnUse" color-interpolation-filters="sRGB">
<feFlood flood-opacity="0" result="BackgroundImageFix"/>
<feBlend mode="normal" in="SourceGraphic" in2="BackgroundImageFix" result="shape"/>
<feColorMatrix in="SourceAlpha" type="matrix" values="0 0 0 0 0 0 0 0 0 0 0 0 0 0 0 0 0 0 127 0" result="hardAlpha"/>
<feOffset dy="4"/>
<feGaussianBlur stdDeviation="2"/>
<feComposite in2="hardAlpha" operator="arithmetic" k2="-1" k3="1"/>
<feColorMatrix type="matrix" values="0 0 0 0 0 0 0 0 0 0 0 0 0 0 0 0 0 0 0.25 0"/>
<feBlend mode="normal" in2="shape" result="effect1_innerShadow_2855_73"/>
</filter>
</defs>
</svg>
