<svg width="158" height="108" viewBox="0 0 158 108" fill="none" xmlns="http://www.w3.org/2000/svg">
<g filter="url(#filter0_d_2816_3062)">
<rect x="4" width="150" height="100" rx="10" fill="#3CB0B8"/>
</g>
<g filter="url(#filter1_i_2816_3062)">
<rect x="12.3334" y="9" width="133.333" height="81.8182" rx="10" fill="#323A45"/>
</g>
<path d="M25.2106 54.46H41.9706V56.64H25.2106V54.46ZM26.4906 41.86H40.5906V43.98H26.4906V41.86ZM26.5706 49.52H40.5306V51.66H26.5706V49.52ZM29.0106 43.82H31.6706V49.72H29.0106V43.82ZM35.4306 43.82H38.0706V49.72H35.4306V43.82ZM43.6091 54.58H60.3691V56.74H43.6091V54.58ZM50.6291 51.08H53.2891V55.46H50.6291V51.08ZM45.4891 41.46H58.4891V47.62H48.1691V50.74H45.5291V45.54H55.8491V43.56H45.4891V41.46ZM45.5291 49.68H58.9091V51.82H45.5291V49.68ZM69.6475 44.84H72.5475V46.98H69.6475V44.84ZM71.6275 40.62H74.1075V51.46H71.6275V40.62ZM65.2475 43.04H67.3075V44.22C67.3075 47.32 66.0875 50.22 63.0875 51.42L61.7475 49.36C64.2275 48.38 65.2475 46.28 65.2475 44.22V43.04ZM65.7475 43.04H67.8075V44.22C67.8075 46.2 68.7675 48.12 71.0875 49.04L69.7875 51.08C66.8875 49.96 65.7475 47.2 65.7475 44.22V43.04ZM62.3275 41.58H70.5075V43.7H62.3275V41.58ZM75.2475 40.26H77.7675V51.54H75.2475V40.26ZM65.0475 52.22H77.7675V58.78H75.1275V54.34H65.0475V52.22ZM82.3659 49.8H95.3859V51.88H82.3659V49.8ZM80.4059 54.5H97.1659V56.66H80.4059V54.5ZM82.3659 41.6H95.2259V43.74H85.0659V50.38H82.3659V41.6ZM84.2459 45.68H94.8059V47.74H84.2459V45.68ZM103.792 57V54.7841L108.97 49.9901C109.41 49.5639 109.779 49.1804 110.078 48.8395C110.381 48.4986 110.61 48.1648 110.767 47.8381C110.923 47.5066 111.001 47.1491 111.001 46.7656C111.001 46.3395 110.904 45.9725 110.71 45.6648C110.516 45.3523 110.251 45.1132 109.914 44.9474C109.578 44.777 109.197 44.6918 108.771 44.6918C108.326 44.6918 107.938 44.7817 107.606 44.9616C107.275 45.1416 107.019 45.3996 106.839 45.7358C106.659 46.072 106.569 46.4721 106.569 46.9361H103.65C103.65 45.9844 103.866 45.1581 104.297 44.4574C104.727 43.7566 105.331 43.2145 106.108 42.831C106.884 42.4474 107.779 42.2557 108.792 42.2557C109.834 42.2557 110.741 42.4403 111.512 42.8097C112.289 43.1742 112.893 43.6809 113.324 44.3295C113.754 44.9782 113.97 45.7216 113.97 46.5597C113.97 47.1089 113.861 47.651 113.643 48.1861C113.43 48.7211 113.049 49.3153 112.5 49.9688C111.95 50.6174 111.176 51.3963 110.177 52.3054L108.054 54.3864V54.4858H114.162V57H103.792ZM128.731 40.26H131.411V49.62H128.731V40.26ZM119.051 50.44H131.411V55.46H121.691V57.32H119.091V53.54H128.771V52.46H119.051V50.44ZM119.091 56.6H131.871V58.66H119.091V56.6ZM120.351 40.68H122.551V42.08C122.551 45.5 120.831 48.6 117.211 49.7L115.931 47.6C119.031 46.66 120.351 44.34 120.351 42.08V40.68ZM120.891 40.68H123.071V42.08C123.071 44.28 124.371 46.44 127.391 47.3L126.111 49.36C122.551 48.32 120.891 45.42 120.891 42.08V40.68Z" fill="white"/>
<defs>
<filter id="filter0_d_2816_3062" x="0" y="0" width="158" height="108" filterUnits="userSpaceOnUse" color-interpolation-filters="sRGB">
<feFlood flood-opacity="0" result="BackgroundImageFix"/>
<feColorMatrix in="SourceAlpha" type="matrix" values="0 0 0 0 0 0 0 0 0 0 0 0 0 0 0 0 0 0 127 0" result="hardAlpha"/>
<feOffset dy="4"/>
<feGaussianBlur stdDeviation="2"/>
<feComposite in2="hardAlpha" operator="out"/>
<feColorMatrix type="matrix" values="0 0 0 0 0 0 0 0 0 0 0 0 0 0 0 0 0 0 0.25 0"/>
<feBlend mode="normal" in2="BackgroundImageFix" result="effect1_dropShadow_2816_3062"/>
<feBlend mode="normal" in="SourceGraphic" in2="effect1_dropShadow_2816_3062" result="shape"/>
</filter>
<filter id="filter1_i_2816_3062" x="12.3334" y="9" width="133.333" height="85.8181" filterUnits="userSpaceOnUse" color-interpolation-filters="sRGB">
<feFlood flood-opacity="0" result="BackgroundImageFix"/>
<feBlend mode="normal" in="SourceGraphic" in2="BackgroundImageFix" result="shape"/>
<feColorMatrix in="SourceAlpha" type="matrix" values="0 0 0 0 0 0 0 0 0 0 0 0 0 0 0 0 0 0 127 0" result="hardAlpha"/>
<feOffset dy="4"/>
<feGaussianBlur stdDeviation="2"/>
<feComposite in2="hardAlpha" operator="arithmetic" k2="-1" k3="1"/>
<feColorMatrix type="matrix" values="0 0 0 0 0 0 0 0 0 0 0 0 0 0 0 0 0 0 0.25 0"/>
<feBlend mode="normal" in2="shape" result="effect1_innerShadow_2816_3062"/>
</filter>
</defs>
</svg>
