<svg width="158" height="108" viewBox="0 0 158 108" fill="none" xmlns="http://www.w3.org/2000/svg">
<g filter="url(#filter0_d_2855_92)">
<rect x="4" width="150" height="100" rx="10" fill="#3CB0B8"/>
</g>
<g filter="url(#filter1_i_2855_92)">
<rect x="12.3333" y="9" width="133.333" height="81.8182" rx="10" fill="#323A45"/>
</g>
<path d="M24.9079 54.46H41.6679V56.64H24.9079V54.46ZM26.1879 41.86H40.2879V43.98H26.1879V41.86ZM26.2679 49.52H40.2279V51.66H26.2679V49.52ZM28.7079 43.82H31.3679V49.72H28.7079V43.82ZM35.1279 43.82H37.7679V49.72H35.1279V43.82ZM43.3063 54.58H60.0663V56.74H43.3063V54.58ZM50.3263 51.08H52.9863V55.46H50.3263V51.08ZM45.1863 41.46H58.1863V47.62H47.8663V50.74H45.2263V45.54H55.5463V43.56H45.1863V41.46ZM45.2263 49.68H58.6063V51.82H45.2263V49.68ZM69.3448 44.84H72.2448V46.98H69.3448V44.84ZM71.3248 40.62H73.8048V51.46H71.3248V40.62ZM64.9448 43.04H67.0048V44.22C67.0048 47.32 65.7848 50.22 62.7848 51.42L61.4448 49.36C63.9248 48.38 64.9448 46.28 64.9448 44.22V43.04ZM65.4448 43.04H67.5048V44.22C67.5048 46.2 68.4648 48.12 70.7848 49.04L69.4848 51.08C66.5848 49.96 65.4448 47.2 65.4448 44.22V43.04ZM62.0248 41.58H70.2048V43.7H62.0248V41.58ZM74.9448 40.26H77.4648V51.54H74.9448V40.26ZM64.7448 52.22H77.4648V58.78H74.8248V54.34H64.7448V52.22ZM82.0632 49.8H95.0832V51.88H82.0632V49.8ZM80.1032 54.5H96.8632V56.66H80.1032V54.5ZM82.0632 41.6H94.9232V43.74H84.7632V50.38H82.0632V41.6ZM83.9432 45.68H94.5032V47.74H83.9432V45.68ZM109.072 57.1989C108.324 57.1941 107.602 57.0687 106.906 56.8224C106.214 56.5762 105.594 56.1761 105.045 55.6222C104.496 55.0682 104.06 54.3343 103.738 53.4205C103.421 52.5066 103.262 51.3845 103.262 50.054C103.267 48.8324 103.407 47.741 103.681 46.7798C103.961 45.8139 104.358 44.9948 104.874 44.3224C105.395 43.6501 106.018 43.1387 106.742 42.7884C107.467 42.4332 108.279 42.2557 109.178 42.2557C110.149 42.2557 111.006 42.4451 111.749 42.8239C112.493 43.1979 113.089 43.7069 113.539 44.3509C113.994 44.9948 114.268 45.7169 114.363 46.517H111.33C111.212 46.0104 110.963 45.6127 110.585 45.3239C110.206 45.035 109.737 44.8906 109.178 44.8906C108.231 44.8906 107.512 45.3026 107.019 46.1264C106.532 46.9503 106.283 48.0701 106.274 49.4858H106.373C106.591 49.0549 106.884 48.688 107.254 48.3849C107.628 48.0772 108.052 47.8428 108.525 47.6818C109.003 47.5161 109.508 47.4332 110.038 47.4332C110.9 47.4332 111.667 47.6368 112.339 48.044C113.011 48.4465 113.542 49.0005 113.93 49.706C114.318 50.4115 114.512 51.2187 114.512 52.1278C114.512 53.1127 114.283 53.9886 113.823 54.7557C113.369 55.5227 112.732 56.1241 111.913 56.5597C111.098 56.9905 110.151 57.2036 109.072 57.1989ZM109.058 54.7841C109.531 54.7841 109.955 54.6705 110.329 54.4432C110.703 54.2159 110.997 53.9081 111.21 53.5199C111.423 53.1316 111.529 52.696 111.529 52.2131C111.529 51.7301 111.423 51.2969 111.21 50.9134C111.001 50.5298 110.713 50.2244 110.343 49.9972C109.974 49.7699 109.552 49.6562 109.079 49.6562C108.724 49.6562 108.395 49.7225 108.092 49.8551C107.794 49.9877 107.531 50.1723 107.303 50.4091C107.081 50.6458 106.906 50.9205 106.778 51.233C106.65 51.5407 106.586 51.8698 106.586 52.2202C106.586 52.6889 106.693 53.1174 106.906 53.5057C107.124 53.8939 107.417 54.2041 107.786 54.4361C108.16 54.6681 108.584 54.7841 109.058 54.7841ZM129.034 40.26H131.714V49.62H129.034V40.26ZM119.354 50.44H131.714V55.46H121.994V57.32H119.394V53.54H129.074V52.46H119.354V50.44ZM119.394 56.6H132.174V58.66H119.394V56.6ZM120.654 40.68H122.854V42.08C122.854 45.5 121.134 48.6 117.514 49.7L116.234 47.6C119.334 46.66 120.654 44.34 120.654 42.08V40.68ZM121.194 40.68H123.374V42.08C123.374 44.28 124.674 46.44 127.694 47.3L126.414 49.36C122.854 48.32 121.194 45.42 121.194 42.08V40.68Z" fill="white"/>
<defs>
<filter id="filter0_d_2855_92" x="0" y="0" width="158" height="108" filterUnits="userSpaceOnUse" color-interpolation-filters="sRGB">
<feFlood flood-opacity="0" result="BackgroundImageFix"/>
<feColorMatrix in="SourceAlpha" type="matrix" values="0 0 0 0 0 0 0 0 0 0 0 0 0 0 0 0 0 0 127 0" result="hardAlpha"/>
<feOffset dy="4"/>
<feGaussianBlur stdDeviation="2"/>
<feComposite in2="hardAlpha" operator="out"/>
<feColorMatrix type="matrix" values="0 0 0 0 0 0 0 0 0 0 0 0 0 0 0 0 0 0 0.25 0"/>
<feBlend mode="normal" in2="BackgroundImageFix" result="effect1_dropShadow_2855_92"/>
<feBlend mode="normal" in="SourceGraphic" in2="effect1_dropShadow_2855_92" result="shape"/>
</filter>
<filter id="filter1_i_2855_92" x="12.3333" y="9" width="133.333" height="85.8181" filterUnits="userSpaceOnUse" color-interpolation-filters="sRGB">
<feFlood flood-opacity="0" result="BackgroundImageFix"/>
<feBlend mode="normal" in="SourceGraphic" in2="BackgroundImageFix" result="shape"/>
<feColorMatrix in="SourceAlpha" type="matrix" values="0 0 0 0 0 0 0 0 0 0 0 0 0 0 0 0 0 0 127 0" result="hardAlpha"/>
<feOffset dy="4"/>
<feGaussianBlur stdDeviation="2"/>
<feComposite in2="hardAlpha" operator="arithmetic" k2="-1" k3="1"/>
<feColorMatrix type="matrix" values="0 0 0 0 0 0 0 0 0 0 0 0 0 0 0 0 0 0 0.25 0"/>
<feBlend mode="normal" in2="shape" result="effect1_innerShadow_2855_92"/>
</filter>
</defs>
</svg>
