<svg width="158" height="108" viewBox="0 0 158 108" fill="none" xmlns="http://www.w3.org/2000/svg">
<g filter="url(#filter0_d_2855_81)">
<rect x="4" width="150" height="100" rx="10" fill="#3CB0B8"/>
</g>
<g filter="url(#filter1_i_2855_81)">
<rect x="12.3334" y="9" width="133.333" height="81.8182" rx="10" fill="#323A45"/>
</g>
<path d="M36.4615 57V42.4545H39.5368V54.4645H45.7726V57H36.4615ZM50.6873 57H47.3919L52.4132 42.4545H56.3762L61.3904 57H58.095L54.4515 45.7784H54.3379L50.6873 57ZM50.4814 51.2827H58.2654V53.6832H50.4814V51.2827ZM63.1412 57V42.4545H68.965C70.0351 42.4545 70.9276 42.6132 71.6426 42.9304C72.3575 43.2476 72.8949 43.688 73.2548 44.2514C73.6146 44.8101 73.7946 45.4541 73.7946 46.1832C73.7946 46.7514 73.6809 47.2509 73.4537 47.6818C73.2264 48.108 72.9139 48.4583 72.5162 48.733C72.1232 49.0028 71.6734 49.1946 71.1667 49.3082V49.4503C71.7207 49.474 72.2392 49.6302 72.7221 49.919C73.2098 50.2079 73.6052 50.6127 73.9082 51.1335C74.2112 51.6496 74.3627 52.2652 74.3627 52.9801C74.3627 53.7519 74.171 54.4408 73.7875 55.0469C73.4087 55.6482 72.8476 56.1241 72.1042 56.4744C71.3609 56.8248 70.4447 57 69.3556 57H63.1412ZM66.2164 54.4858H68.7235C69.5806 54.4858 70.2056 54.3224 70.5985 53.9957C70.9915 53.6643 71.188 53.224 71.188 52.6747C71.188 52.2723 71.091 51.9171 70.8968 51.6094C70.7027 51.3016 70.4257 51.0601 70.0659 50.8849C69.7108 50.7098 69.287 50.6222 68.7946 50.6222H66.2164V54.4858ZM66.2164 48.5412H68.4963C68.9177 48.5412 69.2917 48.4678 69.6184 48.321C69.9499 48.1695 70.2103 47.9564 70.3997 47.6818C70.5938 47.4072 70.6909 47.0781 70.6909 46.6946C70.6909 46.169 70.5038 45.7453 70.1298 45.4233C69.7605 45.1013 69.2349 44.9403 68.5531 44.9403H66.2164V48.5412ZM87.2356 42.4545V57H84.1603V45.3736H84.0751L80.7441 47.4616V44.7344L84.345 42.4545H87.2356ZM96.0051 57.1989C95.0014 57.1989 94.1065 57.0142 93.3205 56.6449C92.5392 56.2756 91.919 55.7666 91.4597 55.1179C91.0004 54.4692 90.7613 53.7259 90.7424 52.8878H93.7253C93.7585 53.4512 93.9952 53.9081 94.4355 54.2585C94.8759 54.6089 95.3991 54.7841 96.0051 54.7841C96.4881 54.7841 96.9142 54.6776 97.2836 54.4645C97.6576 54.2467 97.9488 53.946 98.1571 53.5625C98.3702 53.1742 98.4767 52.7292 98.4767 52.2273C98.4767 51.7159 98.3678 51.2661 98.15 50.8778C97.937 50.4896 97.641 50.1866 97.2623 49.9688C96.8835 49.7509 96.4502 49.6397 95.9625 49.6349C95.5364 49.6349 95.1221 49.7225 94.7196 49.8977C94.3219 50.0729 94.0118 50.312 93.7892 50.6151L91.0549 50.125L91.7438 42.4545H100.636V44.9688H94.2793L93.9029 48.6122H93.9881C94.2438 48.2524 94.6297 47.9541 95.1458 47.7173C95.6619 47.4806 96.2395 47.3622 96.8787 47.3622C97.7547 47.3622 98.5359 47.5682 99.2225 47.9801C99.909 48.392 100.451 48.9579 100.849 49.6776C101.247 50.3925 101.443 51.2164 101.438 52.1491C101.443 53.1293 101.216 54.0005 100.757 54.7628C100.302 55.5204 99.6652 56.117 98.8461 56.5526C98.0317 56.9834 97.0847 57.1989 96.0051 57.1989ZM115.924 40.26H118.604V49.62H115.924V40.26ZM106.244 50.44H118.604V55.46H108.884V57.32H106.284V53.54H115.964V52.46H106.244V50.44ZM106.284 56.6H119.064V58.66H106.284V56.6ZM107.544 40.68H109.744V42.08C109.744 45.5 108.024 48.6 104.404 49.7L103.124 47.6C106.224 46.66 107.544 44.34 107.544 42.08V40.68ZM108.084 40.68H110.264V42.08C110.264 44.28 111.564 46.44 114.584 47.3L113.304 49.36C109.744 48.32 108.084 45.42 108.084 42.08V40.68Z" fill="white"/>
<defs>
<filter id="filter0_d_2855_81" x="0" y="0" width="158" height="108" filterUnits="userSpaceOnUse" color-interpolation-filters="sRGB">
<feFlood flood-opacity="0" result="BackgroundImageFix"/>
<feColorMatrix in="SourceAlpha" type="matrix" values="0 0 0 0 0 0 0 0 0 0 0 0 0 0 0 0 0 0 127 0" result="hardAlpha"/>
<feOffset dy="4"/>
<feGaussianBlur stdDeviation="2"/>
<feComposite in2="hardAlpha" operator="out"/>
<feColorMatrix type="matrix" values="0 0 0 0 0 0 0 0 0 0 0 0 0 0 0 0 0 0 0.25 0"/>
<feBlend mode="normal" in2="BackgroundImageFix" result="effect1_dropShadow_2855_81"/>
<feBlend mode="normal" in="SourceGraphic" in2="effect1_dropShadow_2855_81" result="shape"/>
</filter>
<filter id="filter1_i_2855_81" x="12.3334" y="9" width="133.333" height="85.8181" filterUnits="userSpaceOnUse" color-interpolation-filters="sRGB">
<feFlood flood-opacity="0" result="BackgroundImageFix"/>
<feBlend mode="normal" in="SourceGraphic" in2="BackgroundImageFix" result="shape"/>
<feColorMatrix in="SourceAlpha" type="matrix" values="0 0 0 0 0 0 0 0 0 0 0 0 0 0 0 0 0 0 127 0" result="hardAlpha"/>
<feOffset dy="4"/>
<feGaussianBlur stdDeviation="2"/>
<feComposite in2="hardAlpha" operator="arithmetic" k2="-1" k3="1"/>
<feColorMatrix type="matrix" values="0 0 0 0 0 0 0 0 0 0 0 0 0 0 0 0 0 0 0.25 0"/>
<feBlend mode="normal" in2="shape" result="effect1_innerShadow_2855_81"/>
</filter>
</defs>
</svg>
