<svg width="158" height="108" viewBox="0 0 158 108" fill="none" xmlns="http://www.w3.org/2000/svg">
<g filter="url(#filter0_d_2855_79)">
<rect x="4" width="150" height="100" rx="10" fill="white" fill-opacity="0.866667" shape-rendering="crispEdges"/>
</g>
<g filter="url(#filter1_i_2855_79)">
<rect x="12.3334" y="9" width="133.333" height="81.8182" rx="10" fill="#323A45"/>
</g>
<path d="M36.315 57V42.4545H39.3903V54.4645H45.6261V57H36.315ZM50.5408 57H47.2454L52.2667 42.4545H56.2298L61.244 57H57.9485L54.305 45.7784H54.1914L50.5408 57ZM50.3349 51.2827H58.119V53.6832H50.3349V51.2827ZM62.9947 57V42.4545H68.8185C69.8886 42.4545 70.7811 42.6132 71.4961 42.9304C72.2111 43.2476 72.7485 43.688 73.1083 44.2514C73.4682 44.8101 73.6481 45.4541 73.6481 46.1832C73.6481 46.7514 73.5344 47.2509 73.3072 47.6818C73.0799 48.108 72.7674 48.4583 72.3697 48.733C71.9767 49.0028 71.5269 49.1946 71.0202 49.3082V49.4503C71.5742 49.474 72.0927 49.6302 72.5756 49.919C73.0633 50.2079 73.4587 50.6127 73.7617 51.1335C74.0647 51.6496 74.2163 52.2652 74.2163 52.9801C74.2163 53.7519 74.0245 54.4408 73.641 55.0469C73.2622 55.6482 72.7011 56.1241 71.9577 56.4744C71.2144 56.8248 70.2982 57 69.2092 57H62.9947ZM66.07 54.4858H68.5771C69.4341 54.4858 70.0591 54.3224 70.4521 53.9957C70.8451 53.6643 71.0415 53.224 71.0415 52.6747C71.0415 52.2723 70.9445 51.9171 70.7504 51.6094C70.5562 51.3016 70.2792 51.0601 69.9194 50.8849C69.5643 50.7098 69.1405 50.6222 68.6481 50.6222H66.07V54.4858ZM66.07 48.5412H68.3498C68.7712 48.5412 69.1452 48.4678 69.4719 48.321C69.8034 48.1695 70.0638 47.9564 70.2532 47.6818C70.4473 47.4072 70.5444 47.0781 70.5444 46.6946C70.5444 46.169 70.3574 45.7453 69.9833 45.4233C69.614 45.1013 69.0884 44.9403 68.4066 44.9403H66.07V48.5412ZM87.0891 42.4545V57H84.0138V45.3736H83.9286L80.5977 47.4616V44.7344L84.1985 42.4545H87.0891ZM95.9226 57.1989C94.862 57.1989 93.9174 57.0166 93.0888 56.652C92.2649 56.2827 91.6139 55.776 91.1357 55.1321C90.6622 54.4834 90.4183 53.7353 90.4041 52.8878H93.5007C93.5196 53.2429 93.6357 53.5554 93.8487 53.8253C94.0665 54.0904 94.3554 54.2964 94.7152 54.4432C95.075 54.59 95.4799 54.6634 95.9297 54.6634C96.3984 54.6634 96.8127 54.5805 97.1726 54.4148C97.5324 54.2491 97.8142 54.0194 98.0178 53.7259C98.2214 53.4323 98.3232 53.0937 98.3232 52.7102C98.3232 52.322 98.2143 51.9787 97.9964 51.6804C97.7834 51.3774 97.4756 51.1406 97.0732 50.9702C96.6754 50.7997 96.2019 50.7145 95.6527 50.7145H94.2962V48.456H95.6527C96.1167 48.456 96.5263 48.3755 96.8814 48.2145C97.2412 48.0535 97.5206 47.831 97.7195 47.5469C97.9183 47.258 98.0178 46.9219 98.0178 46.5384C98.0178 46.1738 97.9302 45.8542 97.755 45.5795C97.5845 45.3002 97.343 45.0824 97.0305 44.9261C96.7228 44.7699 96.3629 44.6918 95.951 44.6918C95.5343 44.6918 95.1532 44.7675 94.8075 44.919C94.4619 45.0658 94.1849 45.2765 93.9766 45.5511C93.7682 45.8258 93.657 46.1477 93.6428 46.517H90.6953C90.7095 45.679 90.9486 44.9403 91.4126 44.3011C91.8767 43.6619 92.5017 43.1624 93.2876 42.8026C94.0784 42.438 94.9709 42.2557 95.9652 42.2557C96.969 42.2557 97.8473 42.438 98.6001 42.8026C99.353 43.1671 99.9377 43.6596 100.354 44.2798C100.776 44.8954 100.984 45.5866 100.979 46.3537C100.984 47.1681 100.731 47.8475 100.219 48.392C99.7128 48.9366 99.0523 49.2822 98.2379 49.429V49.5426C99.308 49.6799 100.122 50.0516 100.681 50.6577C101.245 51.259 101.524 52.0118 101.519 52.9162C101.524 53.7448 101.285 54.4811 100.802 55.125C100.324 55.7689 99.6631 56.2756 98.8203 56.6449C97.9775 57.0142 97.0116 57.1989 95.9226 57.1989ZM116.071 40.26H118.751V49.62H116.071V40.26ZM106.391 50.44H118.751V55.46H109.031V57.32H106.431V53.54H116.111V52.46H106.391V50.44ZM106.431 56.6H119.211V58.66H106.431V56.6ZM107.691 40.68H109.891V42.08C109.891 45.5 108.171 48.6 104.551 49.7L103.271 47.6C106.371 46.66 107.691 44.34 107.691 42.08V40.68ZM108.231 40.68H110.411V42.08C110.411 44.28 111.711 46.44 114.731 47.3L113.451 49.36C109.891 48.32 108.231 45.42 108.231 42.08V40.68Z" fill="white"/>
<defs>
<filter id="filter0_d_2855_79" x="0" y="0" width="158" height="108" filterUnits="userSpaceOnUse" color-interpolation-filters="sRGB">
<feFlood flood-opacity="0" result="BackgroundImageFix"/>
<feColorMatrix in="SourceAlpha" type="matrix" values="0 0 0 0 0 0 0 0 0 0 0 0 0 0 0 0 0 0 127 0" result="hardAlpha"/>
<feOffset dy="4"/>
<feGaussianBlur stdDeviation="2"/>
<feComposite in2="hardAlpha" operator="out"/>
<feColorMatrix type="matrix" values="0 0 0 0 0 0 0 0 0 0 0 0 0 0 0 0 0 0 0.25 0"/>
<feBlend mode="normal" in2="BackgroundImageFix" result="effect1_dropShadow_2855_79"/>
<feBlend mode="normal" in="SourceGraphic" in2="effect1_dropShadow_2855_79" result="shape"/>
</filter>
<filter id="filter1_i_2855_79" x="12.3334" y="9" width="133.333" height="85.8181" filterUnits="userSpaceOnUse" color-interpolation-filters="sRGB">
<feFlood flood-opacity="0" result="BackgroundImageFix"/>
<feBlend mode="normal" in="SourceGraphic" in2="BackgroundImageFix" result="shape"/>
<feColorMatrix in="SourceAlpha" type="matrix" values="0 0 0 0 0 0 0 0 0 0 0 0 0 0 0 0 0 0 127 0" result="hardAlpha"/>
<feOffset dy="4"/>
<feGaussianBlur stdDeviation="2"/>
<feComposite in2="hardAlpha" operator="arithmetic" k2="-1" k3="1"/>
<feColorMatrix type="matrix" values="0 0 0 0 0 0 0 0 0 0 0 0 0 0 0 0 0 0 0.25 0"/>
<feBlend mode="normal" in2="shape" result="effect1_innerShadow_2855_79"/>
</filter>
</defs>
</svg>
