<svg width="158" height="108" viewBox="0 0 158 108" fill="none" xmlns="http://www.w3.org/2000/svg">
<g filter="url(#filter0_d_2926_2889)">
<rect x="4" width="150" height="100" rx="10" fill="#3CB0B8"/>
</g>
<g filter="url(#filter1_i_2926_2889)">
<rect x="12.3334" y="9" width="133.333" height="81.8182" rx="10" fill="#323A45"/>
</g>
<path d="M37.522 57V42.4545H40.5973V54.4645H46.8331V57H37.522ZM51.7479 57H48.4524L53.4737 42.4545H57.4368L62.451 57H59.1555L55.5121 45.7784H55.3984L51.7479 57ZM51.5419 51.2827H59.326V53.6832H51.5419V51.2827ZM64.2017 57V42.4545H70.0256C71.0956 42.4545 71.9882 42.6132 72.7031 42.9304C73.4181 43.2476 73.9555 43.688 74.3153 44.2514C74.6752 44.8101 74.8551 45.4541 74.8551 46.1832C74.8551 46.7514 74.7415 47.2509 74.5142 47.6818C74.2869 48.108 73.9744 48.4583 73.5767 48.733C73.1837 49.0028 72.7339 49.1946 72.2273 49.3082V49.4503C72.7813 49.474 73.2997 49.6302 73.7827 49.919C74.2704 50.2079 74.6657 50.6127 74.9688 51.1335C75.2718 51.6496 75.4233 52.2652 75.4233 52.9801C75.4233 53.7519 75.2315 54.4408 74.848 55.0469C74.4692 55.6482 73.9081 56.1241 73.1648 56.4744C72.4214 56.8248 71.5052 57 70.4162 57H64.2017ZM67.277 54.4858H69.7841C70.6411 54.4858 71.2661 54.3224 71.6591 53.9957C72.0521 53.6643 72.2486 53.224 72.2486 52.6747C72.2486 52.2723 72.1515 51.9171 71.9574 51.6094C71.7633 51.3016 71.4863 51.0601 71.1264 50.8849C70.7713 50.7098 70.3475 50.6222 69.8551 50.6222H67.277V54.4858ZM67.277 48.5412H69.5568C69.9782 48.5412 70.3523 48.4678 70.679 48.321C71.0104 48.1695 71.2708 47.9564 71.4602 47.6818C71.6544 47.4072 71.7514 47.0781 71.7514 46.6946C71.7514 46.169 71.5644 45.7453 71.1903 45.4233C70.821 45.1013 70.2955 44.9403 69.6136 44.9403H67.277V48.5412ZM88.2962 42.4545V57H85.2209V45.3736H85.1357L81.8047 47.4616V44.7344L85.4055 42.4545H88.2962ZM97.4563 57.3196C96.2347 57.3149 95.1836 57.0142 94.3029 56.4176C93.427 55.821 92.7522 54.9569 92.2788 53.8253C91.81 52.6937 91.578 51.3324 91.5827 49.7415C91.5827 48.1553 91.8171 46.8035 92.2859 45.6861C92.7594 44.5687 93.4341 43.7187 94.31 43.1364C95.1907 42.5492 96.2395 42.2557 97.4563 42.2557C98.6732 42.2557 99.7196 42.5492 100.596 43.1364C101.476 43.7235 102.153 44.5758 102.627 45.6932C103.1 46.8059 103.335 48.1553 103.33 49.7415C103.33 51.3371 103.093 52.7008 102.62 53.8324C102.151 54.964 101.479 55.8281 100.603 56.4247C99.7267 57.0213 98.6779 57.3196 97.4563 57.3196ZM97.4563 54.7699C98.2897 54.7699 98.9549 54.3509 99.4521 53.5128C99.9492 52.6747 100.195 51.4176 100.191 49.7415C100.191 48.6383 100.077 47.7197 99.8498 46.9858C99.6272 46.2519 99.31 45.7003 98.8981 45.331C98.4909 44.9616 98.0103 44.777 97.4563 44.777C96.6277 44.777 95.9648 45.1913 95.4677 46.0199C94.9705 46.8485 94.7196 48.089 94.7148 49.7415C94.7148 50.8589 94.8261 51.7917 95.0487 52.5398C95.2759 53.2831 95.5955 53.8419 96.0075 54.2159C96.4194 54.5852 96.9023 54.7699 97.4563 54.7699ZM117.864 40.26H120.544V49.62H117.864V40.26ZM108.184 50.44H120.544V55.46H110.824V57.32H108.224V53.54H117.904V52.46H108.184V50.44ZM108.224 56.6H121.004V58.66H108.224V56.6ZM109.484 40.68H111.684V42.08C111.684 45.5 109.964 48.6 106.344 49.7L105.064 47.6C108.164 46.66 109.484 44.34 109.484 42.08V40.68ZM110.024 40.68H112.204V42.08C112.204 44.28 113.504 46.44 116.524 47.3L115.244 49.36C111.684 48.32 110.024 45.42 110.024 42.08V40.68Z" fill="white"/>
<defs>
<filter id="filter0_d_2926_2889" x="0" y="0" width="158" height="108" filterUnits="userSpaceOnUse" color-interpolation-filters="sRGB">
<feFlood flood-opacity="0" result="BackgroundImageFix"/>
<feColorMatrix in="SourceAlpha" type="matrix" values="0 0 0 0 0 0 0 0 0 0 0 0 0 0 0 0 0 0 127 0" result="hardAlpha"/>
<feOffset dy="4"/>
<feGaussianBlur stdDeviation="2"/>
<feComposite in2="hardAlpha" operator="out"/>
<feColorMatrix type="matrix" values="0 0 0 0 0 0 0 0 0 0 0 0 0 0 0 0 0 0 0.25 0"/>
<feBlend mode="normal" in2="BackgroundImageFix" result="effect1_dropShadow_2926_2889"/>
<feBlend mode="normal" in="SourceGraphic" in2="effect1_dropShadow_2926_2889" result="shape"/>
</filter>
<filter id="filter1_i_2926_2889" x="12.3334" y="9" width="133.333" height="85.8181" filterUnits="userSpaceOnUse" color-interpolation-filters="sRGB">
<feFlood flood-opacity="0" result="BackgroundImageFix"/>
<feBlend mode="normal" in="SourceGraphic" in2="BackgroundImageFix" result="shape"/>
<feColorMatrix in="SourceAlpha" type="matrix" values="0 0 0 0 0 0 0 0 0 0 0 0 0 0 0 0 0 0 127 0" result="hardAlpha"/>
<feOffset dy="4"/>
<feGaussianBlur stdDeviation="2"/>
<feComposite in2="hardAlpha" operator="arithmetic" k2="-1" k3="1"/>
<feColorMatrix type="matrix" values="0 0 0 0 0 0 0 0 0 0 0 0 0 0 0 0 0 0 0.25 0"/>
<feBlend mode="normal" in2="shape" result="effect1_innerShadow_2926_2889"/>
</filter>
</defs>
</svg>
