<svg width="158" height="108" viewBox="0 0 158 108" fill="none" xmlns="http://www.w3.org/2000/svg">
<g filter="url(#filter0_d_2855_88)">
<rect x="4" width="150" height="100" rx="10" fill="white" fill-opacity="0.866667" shape-rendering="crispEdges"/>
</g>
<g filter="url(#filter1_i_2855_88)">
<rect x="12.3334" y="9" width="133.333" height="81.8182" rx="10" fill="#323A45"/>
</g>
<path d="M37.7017 57V42.4545H40.777V54.4645H47.0128V57H37.7017ZM51.9276 57H48.6321L53.6534 42.4545H57.6165L62.6307 57H59.3352L55.6918 45.7784H55.5781L51.9276 57ZM51.7216 51.2827H59.5057V53.6832H51.7216V51.2827ZM64.3814 57V42.4545H70.2053C71.2753 42.4545 72.1679 42.6132 72.8828 42.9304C73.5978 43.2476 74.1352 43.688 74.495 44.2514C74.8549 44.8101 75.0348 45.4541 75.0348 46.1832C75.0348 46.7514 74.9212 47.2509 74.6939 47.6818C74.4666 48.108 74.1541 48.4583 73.7564 48.733C73.3634 49.0028 72.9136 49.1946 72.407 49.3082V49.4503C72.9609 49.474 73.4794 49.6302 73.9624 49.919C74.45 50.2079 74.8454 50.6127 75.1484 51.1335C75.4515 51.6496 75.603 52.2652 75.603 52.9801C75.603 53.7519 75.4112 54.4408 75.0277 55.0469C74.6489 55.6482 74.0878 56.1241 73.3445 56.4744C72.6011 56.8248 71.6849 57 70.5959 57H64.3814ZM67.4567 54.4858H69.9638C70.8208 54.4858 71.4458 54.3224 71.8388 53.9957C72.2318 53.6643 72.4283 53.224 72.4283 52.6747C72.4283 52.2723 72.3312 51.9171 72.1371 51.6094C71.9429 51.3016 71.666 51.0601 71.3061 50.8849C70.951 50.7098 70.5272 50.6222 70.0348 50.6222H67.4567V54.4858ZM67.4567 48.5412H69.7365C70.1579 48.5412 70.532 48.4678 70.8587 48.321C71.1901 48.1695 71.4505 47.9564 71.6399 47.6818C71.834 47.4072 71.9311 47.0781 71.9311 46.6946C71.9311 46.169 71.7441 45.7453 71.37 45.4233C71.0007 45.1013 70.4751 44.9403 69.7933 44.9403H67.4567V48.5412ZM82.1477 57V54.7841L87.3253 49.9901C87.7656 49.5639 88.1349 49.1804 88.4332 48.8395C88.7363 48.4986 88.9659 48.1648 89.1222 47.8381C89.2784 47.5066 89.3565 47.1491 89.3565 46.7656C89.3565 46.3395 89.2595 45.9725 89.0653 45.6648C88.8712 45.3523 88.6061 45.1132 88.2699 44.9474C87.9337 44.777 87.5526 44.6918 87.1264 44.6918C86.6813 44.6918 86.2931 44.7817 85.9616 44.9616C85.6302 45.1416 85.3745 45.3996 85.1946 45.7358C85.0147 46.072 84.9247 46.4721 84.9247 46.9361H82.0057C82.0057 45.9844 82.2211 45.1581 82.652 44.4574C83.0829 43.7566 83.6866 43.2145 84.4631 42.831C85.2396 42.4474 86.1345 42.2557 87.1477 42.2557C88.1894 42.2557 89.0961 42.4403 89.8679 42.8097C90.6444 43.1742 91.2481 43.6809 91.679 44.3295C92.1098 44.9782 92.3253 45.7216 92.3253 46.5597C92.3253 47.1089 92.2164 47.651 91.9986 48.1861C91.7855 48.7211 91.4044 49.3153 90.8551 49.9688C90.3059 50.6174 89.5317 51.3963 88.5327 52.3054L86.4091 54.3864V54.4858H92.517V57H82.1477ZM94.7454 57V54.7841L99.9229 49.9901C100.363 49.5639 100.733 49.1804 101.031 48.8395C101.334 48.4986 101.564 48.1648 101.72 47.8381C101.876 47.5066 101.954 47.1491 101.954 46.7656C101.954 46.3395 101.857 45.9725 101.663 45.6648C101.469 45.3523 101.204 45.1132 100.868 44.9474C100.531 44.777 100.15 44.6918 99.7241 44.6918C99.279 44.6918 98.8907 44.7817 98.5593 44.9616C98.2279 45.1416 97.9722 45.3996 97.7923 45.7358C97.6123 46.072 97.5224 46.4721 97.5224 46.9361H94.6033C94.6033 45.9844 94.8188 45.1581 95.2496 44.4574C95.6805 43.7566 96.2842 43.2145 97.0607 42.831C97.8372 42.4474 98.7321 42.2557 99.7454 42.2557C100.787 42.2557 101.694 42.4403 102.466 42.8097C103.242 43.1742 103.846 43.6809 104.277 44.3295C104.708 44.9782 104.923 45.7216 104.923 46.5597C104.923 47.1089 104.814 47.651 104.596 48.1861C104.383 48.7211 104.002 49.3153 103.453 49.9688C102.904 50.6174 102.129 51.3963 101.13 52.3054L99.0067 54.3864V54.4858H105.115V57H94.7454ZM119.684 40.26H122.364V49.62H119.684V40.26ZM110.004 50.44H122.364V55.46H112.644V57.32H110.044V53.54H119.724V52.46H110.004V50.44ZM110.044 56.6H122.824V58.66H110.044V56.6ZM111.304 40.68H113.504V42.08C113.504 45.5 111.784 48.6 108.164 49.7L106.884 47.6C109.984 46.66 111.304 44.34 111.304 42.08V40.68ZM111.844 40.68H114.024V42.08C114.024 44.28 115.324 46.44 118.344 47.3L117.064 49.36C113.504 48.32 111.844 45.42 111.844 42.08V40.68Z" fill="white"/>
<defs>
<filter id="filter0_d_2855_88" x="0" y="0" width="158" height="108" filterUnits="userSpaceOnUse" color-interpolation-filters="sRGB">
<feFlood flood-opacity="0" result="BackgroundImageFix"/>
<feColorMatrix in="SourceAlpha" type="matrix" values="0 0 0 0 0 0 0 0 0 0 0 0 0 0 0 0 0 0 127 0" result="hardAlpha"/>
<feOffset dy="4"/>
<feGaussianBlur stdDeviation="2"/>
<feComposite in2="hardAlpha" operator="out"/>
<feColorMatrix type="matrix" values="0 0 0 0 0 0 0 0 0 0 0 0 0 0 0 0 0 0 0.25 0"/>
<feBlend mode="normal" in2="BackgroundImageFix" result="effect1_dropShadow_2855_88"/>
<feBlend mode="normal" in="SourceGraphic" in2="effect1_dropShadow_2855_88" result="shape"/>
</filter>
<filter id="filter1_i_2855_88" x="12.3334" y="9" width="133.333" height="85.8181" filterUnits="userSpaceOnUse" color-interpolation-filters="sRGB">
<feFlood flood-opacity="0" result="BackgroundImageFix"/>
<feBlend mode="normal" in="SourceGraphic" in2="BackgroundImageFix" result="shape"/>
<feColorMatrix in="SourceAlpha" type="matrix" values="0 0 0 0 0 0 0 0 0 0 0 0 0 0 0 0 0 0 127 0" result="hardAlpha"/>
<feOffset dy="4"/>
<feGaussianBlur stdDeviation="2"/>
<feComposite in2="hardAlpha" operator="arithmetic" k2="-1" k3="1"/>
<feColorMatrix type="matrix" values="0 0 0 0 0 0 0 0 0 0 0 0 0 0 0 0 0 0 0.25 0"/>
<feBlend mode="normal" in2="shape" result="effect1_innerShadow_2855_88"/>
</filter>
</defs>
</svg>
