<svg width="158" height="108" viewBox="0 0 158 108" fill="none" xmlns="http://www.w3.org/2000/svg">
<g filter="url(#filter0_d_2855_84)">
<rect x="4" width="150" height="100" rx="10" fill="white" fill-opacity="0.866667" shape-rendering="crispEdges"/>
</g>
<g filter="url(#filter1_i_2855_84)">
<rect x="12.3334" y="9" width="133.333" height="81.8182" rx="10" fill="#323A45"/>
</g>
<path d="M35.6158 57V42.4545H38.6911V54.4645H44.9268V57H35.6158ZM49.8416 57H46.5462L51.5675 42.4545H55.5305L60.5447 57H57.2493L53.6058 45.7784H53.4922L49.8416 57ZM49.6357 51.2827H57.4197V53.6832H49.6357V51.2827ZM62.2955 57V42.4545H68.1193C69.1894 42.4545 70.0819 42.6132 70.7969 42.9304C71.5118 43.2476 72.0492 43.688 72.4091 44.2514C72.7689 44.8101 72.9489 45.4541 72.9489 46.1832C72.9489 46.7514 72.8352 47.2509 72.608 47.6818C72.3807 48.108 72.0682 48.4583 71.6705 48.733C71.2775 49.0028 70.8277 49.1946 70.321 49.3082V49.4503C70.875 49.474 71.3935 49.6302 71.8764 49.919C72.3641 50.2079 72.7595 50.6127 73.0625 51.1335C73.3655 51.6496 73.517 52.2652 73.517 52.9801C73.517 53.7519 73.3253 54.4408 72.9418 55.0469C72.563 55.6482 72.0019 56.1241 71.2585 56.4744C70.5152 56.8248 69.599 57 68.5099 57H62.2955ZM65.3707 54.4858H67.8778C68.7348 54.4858 69.3598 54.3224 69.7528 53.9957C70.1458 53.6643 70.3423 53.224 70.3423 52.6747C70.3423 52.2723 70.2453 51.9171 70.0511 51.6094C69.857 51.3016 69.58 51.0601 69.2202 50.8849C68.8651 50.7098 68.4413 50.6222 67.9489 50.6222H65.3707V54.4858ZM65.3707 48.5412H67.6506C68.072 48.5412 68.446 48.4678 68.7727 48.321C69.1042 48.1695 69.3646 47.9564 69.554 47.6818C69.7481 47.4072 69.8452 47.0781 69.8452 46.6946C69.8452 46.169 69.6581 45.7453 69.2841 45.4233C68.9148 45.1013 68.3892 44.9403 67.7074 44.9403H65.3707V48.5412ZM80.0618 57V54.7841L85.2393 49.9901C85.6797 49.5639 86.049 49.1804 86.3473 48.8395C86.6503 48.4986 86.88 48.1648 87.0362 47.8381C87.1925 47.5066 87.2706 47.1491 87.2706 46.7656C87.2706 46.3395 87.1735 45.9725 86.9794 45.6648C86.7853 45.3523 86.5201 45.1132 86.1839 44.9474C85.8478 44.777 85.4666 44.6918 85.0405 44.6918C84.5954 44.6918 84.2071 44.7817 83.8757 44.9616C83.5443 45.1416 83.2886 45.3996 83.1087 45.7358C82.9287 46.072 82.8388 46.4721 82.8388 46.9361H79.9197C79.9197 45.9844 80.1352 45.1581 80.5661 44.4574C80.9969 43.7566 81.6006 43.2145 82.3771 42.831C83.1536 42.4474 84.0485 42.2557 85.0618 42.2557C86.1035 42.2557 87.0102 42.4403 87.782 42.8097C88.5585 43.1742 89.1622 43.6809 89.593 44.3295C90.0239 44.9782 90.2393 45.7216 90.2393 46.5597C90.2393 47.1089 90.1304 47.651 89.9126 48.1861C89.6996 48.7211 89.3184 49.3153 88.7692 49.9688C88.2199 50.6174 87.4458 51.3963 86.4467 52.3054L84.3232 54.3864V54.4858H90.4311V57H80.0618ZM98.3626 57.3196C97.141 57.3149 96.0898 57.0142 95.2092 56.4176C94.3332 55.821 93.6585 54.9569 93.185 53.8253C92.7163 52.6937 92.4843 51.3324 92.489 49.7415C92.489 48.1553 92.7234 46.8035 93.1921 45.6861C93.6656 44.5687 94.3403 43.7187 95.2163 43.1364C96.0969 42.5492 97.1457 42.2557 98.3626 42.2557C99.5794 42.2557 100.626 42.5492 101.502 43.1364C102.382 43.7235 103.06 44.5758 103.533 45.6932C104.007 46.8059 104.241 48.1553 104.236 49.7415C104.236 51.3371 103.999 52.7008 103.526 53.8324C103.057 54.964 102.385 55.8281 101.509 56.4247C100.633 57.0213 99.5842 57.3196 98.3626 57.3196ZM98.3626 54.7699C99.1959 54.7699 99.8612 54.3509 100.358 53.5128C100.855 52.6747 101.102 51.4176 101.097 49.7415C101.097 48.6383 100.983 47.7197 100.756 46.9858C100.533 46.2519 100.216 45.7003 99.8043 45.331C99.3971 44.9616 98.9165 44.777 98.3626 44.777C97.534 44.777 96.8711 45.1913 96.3739 46.0199C95.8768 46.8485 95.6258 48.089 95.6211 49.7415C95.6211 50.8589 95.7324 51.7917 95.9549 52.5398C96.1822 53.2831 96.5018 53.8419 96.9137 54.2159C97.3256 54.5852 97.8086 54.7699 98.3626 54.7699ZM118.77 40.26H121.45V49.62H118.77V40.26ZM109.09 50.44H121.45V55.46H111.73V57.32H109.13V53.54H118.81V52.46H109.09V50.44ZM109.13 56.6H121.91V58.66H109.13V56.6ZM110.39 40.68H112.59V42.08C112.59 45.5 110.87 48.6 107.25 49.7L105.97 47.6C109.07 46.66 110.39 44.34 110.39 42.08V40.68ZM110.93 40.68H113.11V42.08C113.11 44.28 114.41 46.44 117.43 47.3L116.15 49.36C112.59 48.32 110.93 45.42 110.93 42.08V40.68Z" fill="white"/>
<defs>
<filter id="filter0_d_2855_84" x="0" y="0" width="158" height="108" filterUnits="userSpaceOnUse" color-interpolation-filters="sRGB">
<feFlood flood-opacity="0" result="BackgroundImageFix"/>
<feColorMatrix in="SourceAlpha" type="matrix" values="0 0 0 0 0 0 0 0 0 0 0 0 0 0 0 0 0 0 127 0" result="hardAlpha"/>
<feOffset dy="4"/>
<feGaussianBlur stdDeviation="2"/>
<feComposite in2="hardAlpha" operator="out"/>
<feColorMatrix type="matrix" values="0 0 0 0 0 0 0 0 0 0 0 0 0 0 0 0 0 0 0.25 0"/>
<feBlend mode="normal" in2="BackgroundImageFix" result="effect1_dropShadow_2855_84"/>
<feBlend mode="normal" in="SourceGraphic" in2="effect1_dropShadow_2855_84" result="shape"/>
</filter>
<filter id="filter1_i_2855_84" x="12.3334" y="9" width="133.333" height="85.8181" filterUnits="userSpaceOnUse" color-interpolation-filters="sRGB">
<feFlood flood-opacity="0" result="BackgroundImageFix"/>
<feBlend mode="normal" in="SourceGraphic" in2="BackgroundImageFix" result="shape"/>
<feColorMatrix in="SourceAlpha" type="matrix" values="0 0 0 0 0 0 0 0 0 0 0 0 0 0 0 0 0 0 127 0" result="hardAlpha"/>
<feOffset dy="4"/>
<feGaussianBlur stdDeviation="2"/>
<feComposite in2="hardAlpha" operator="arithmetic" k2="-1" k3="1"/>
<feColorMatrix type="matrix" values="0 0 0 0 0 0 0 0 0 0 0 0 0 0 0 0 0 0 0.25 0"/>
<feBlend mode="normal" in2="shape" result="effect1_innerShadow_2855_84"/>
</filter>
</defs>
</svg>
