<svg width="158" height="108" viewBox="0 0 158 108" fill="none" xmlns="http://www.w3.org/2000/svg">
<g filter="url(#filter0_d_2854_67)">
<rect x="4" width="150" height="100" rx="10" fill="#F6F6F6"/>
</g>
<g filter="url(#filter1_i_2854_67)">
<rect x="12.3334" y="9" width="133.333" height="81.8182" rx="10" fill="#323A45"/>
</g>
<path d="M41.7076 57V42.4545H44.7828V54.4645H51.0186V57H41.7076ZM55.9334 57H52.638L57.6593 42.4545H61.6223L66.6365 57H63.3411L59.6976 45.7784H59.584L55.9334 57ZM55.7275 51.2827H63.5115V53.6832H55.7275V51.2827ZM68.3873 57V42.4545H74.2111C75.2812 42.4545 76.1737 42.6132 76.8887 42.9304C77.6036 43.2476 78.141 43.688 78.5009 44.2514C78.8607 44.8101 79.0407 45.4541 79.0407 46.1832C79.0407 46.7514 78.927 47.2509 78.6998 47.6818C78.4725 48.108 78.16 48.4583 77.7623 48.733C77.3693 49.0028 76.9194 49.1946 76.4128 49.3082V49.4503C76.9668 49.474 77.4853 49.6302 77.9682 49.919C78.4559 50.2079 78.8513 50.6127 79.1543 51.1335C79.4573 51.6496 79.6088 52.2652 79.6088 52.9801C79.6088 53.7519 79.4171 54.4408 79.0336 55.0469C78.6548 55.6482 78.0937 56.1241 77.3503 56.4744C76.6069 56.8248 75.6908 57 74.6017 57H68.3873ZM71.4625 54.4858H73.9696C74.8266 54.4858 75.4516 54.3224 75.8446 53.9957C76.2376 53.6643 76.4341 53.224 76.4341 52.6747C76.4341 52.2723 76.3371 51.9171 76.1429 51.6094C75.9488 51.3016 75.6718 51.0601 75.312 50.8849C74.9569 50.7098 74.5331 50.6222 74.0407 50.6222H71.4625V54.4858ZM71.4625 48.5412H73.7424C74.1638 48.5412 74.5378 48.4678 74.8645 48.321C75.196 48.1695 75.4564 47.9564 75.6458 47.6818C75.8399 47.4072 75.937 47.0781 75.937 46.6946C75.937 46.169 75.7499 45.7453 75.3759 45.4233C75.0066 45.1013 74.481 44.9403 73.7992 44.9403H71.4625V48.5412ZM91.53 57.1989C90.4694 57.1989 89.5248 57.0166 88.6962 56.652C87.8723 56.2827 87.2213 55.776 86.7431 55.1321C86.2696 54.4834 86.0257 53.7353 86.0115 52.8878H89.1081C89.1271 53.2429 89.2431 53.5554 89.4561 53.8253C89.6739 54.0904 89.9628 54.2964 90.3226 54.4432C90.6825 54.59 91.0873 54.6634 91.5371 54.6634C92.0059 54.6634 92.4202 54.5805 92.78 54.4148C93.1399 54.2491 93.4216 54.0194 93.6252 53.7259C93.8288 53.4323 93.9306 53.0937 93.9306 52.7102C93.9306 52.322 93.8217 51.9787 93.6039 51.6804C93.3908 51.3774 93.083 51.1406 92.6806 50.9702C92.2828 50.7997 91.8094 50.7145 91.2601 50.7145H89.9036V48.456H91.2601C91.7241 48.456 92.1337 48.3755 92.4888 48.2145C92.8487 48.0535 93.128 47.831 93.3269 47.5469C93.5257 47.258 93.6252 46.9219 93.6252 46.5384C93.6252 46.1738 93.5376 45.8542 93.3624 45.5795C93.1919 45.3002 92.9505 45.0824 92.638 44.9261C92.3302 44.7699 91.9703 44.6918 91.5584 44.6918C91.1417 44.6918 90.7606 44.7675 90.415 44.919C90.0693 45.0658 89.7923 45.2765 89.584 45.5511C89.3757 45.8258 89.2644 46.1477 89.2502 46.517H86.3027C86.3169 45.679 86.556 44.9403 87.0201 44.3011C87.4841 43.6619 88.1091 43.1624 88.8951 42.8026C89.6858 42.438 90.5783 42.2557 91.5726 42.2557C92.5764 42.2557 93.4547 42.438 94.2076 42.8026C94.9604 43.1671 95.5452 43.6596 95.9618 44.2798C96.3832 44.8954 96.5916 45.5866 96.5868 46.3537C96.5916 47.1681 96.3382 47.8475 95.8269 48.392C95.3203 48.9366 94.6597 49.2822 93.8453 49.429V49.5426C94.9154 49.6799 95.7298 50.0516 96.2885 50.6577C96.852 51.259 97.1313 52.0118 97.1266 52.9162C97.1313 53.7448 96.8922 54.4811 96.4093 55.125C95.931 55.7689 95.2705 56.2756 94.4277 56.6449C93.5849 57.0142 92.619 57.1989 91.53 57.1989ZM111.678 40.26H114.358V49.62H111.678V40.26ZM101.998 50.44H114.358V55.46H104.638V57.32H102.038V53.54H111.718V52.46H101.998V50.44ZM102.038 56.6H114.818V58.66H102.038V56.6ZM103.298 40.68H105.498V42.08C105.498 45.5 103.778 48.6 100.158 49.7L98.8782 47.6C101.978 46.66 103.298 44.34 103.298 42.08V40.68ZM103.838 40.68H106.018V42.08C106.018 44.28 107.318 46.44 110.338 47.3L109.058 49.36C105.498 48.32 103.838 45.42 103.838 42.08V40.68Z" fill="white"/>
<defs>
<filter id="filter0_d_2854_67" x="0" y="0" width="158" height="108" filterUnits="userSpaceOnUse" color-interpolation-filters="sRGB">
<feFlood flood-opacity="0" result="BackgroundImageFix"/>
<feColorMatrix in="SourceAlpha" type="matrix" values="0 0 0 0 0 0 0 0 0 0 0 0 0 0 0 0 0 0 127 0" result="hardAlpha"/>
<feOffset dy="4"/>
<feGaussianBlur stdDeviation="2"/>
<feComposite in2="hardAlpha" operator="out"/>
<feColorMatrix type="matrix" values="0 0 0 0 0 0 0 0 0 0 0 0 0 0 0 0 0 0 0.25 0"/>
<feBlend mode="normal" in2="BackgroundImageFix" result="effect1_dropShadow_2854_67"/>
<feBlend mode="normal" in="SourceGraphic" in2="effect1_dropShadow_2854_67" result="shape"/>
</filter>
<filter id="filter1_i_2854_67" x="12.3334" y="9" width="133.333" height="85.8181" filterUnits="userSpaceOnUse" color-interpolation-filters="sRGB">
<feFlood flood-opacity="0" result="BackgroundImageFix"/>
<feBlend mode="normal" in="SourceGraphic" in2="BackgroundImageFix" result="shape"/>
<feColorMatrix in="SourceAlpha" type="matrix" values="0 0 0 0 0 0 0 0 0 0 0 0 0 0 0 0 0 0 127 0" result="hardAlpha"/>
<feOffset dy="4"/>
<feGaussianBlur stdDeviation="2"/>
<feComposite in2="hardAlpha" operator="arithmetic" k2="-1" k3="1"/>
<feColorMatrix type="matrix" values="0 0 0 0 0 0 0 0 0 0 0 0 0 0 0 0 0 0 0.25 0"/>
<feBlend mode="normal" in2="shape" result="effect1_innerShadow_2854_67"/>
</filter>
</defs>
</svg>
