<svg width="158" height="108" viewBox="0 0 158 108" fill="none" xmlns="http://www.w3.org/2000/svg">
<g filter="url(#filter0_d_2854_69)">
<rect x="4" width="150" height="100" rx="10" fill="#F6F6F6"/>
</g>
<g filter="url(#filter1_i_2854_69)">
<rect x="12.3333" y="9" width="133.333" height="81.8182" rx="10" fill="#323A45"/>
</g>
<path d="M44.354 57V42.4545H47.4293V54.4645H53.6651V57H44.354ZM58.5799 57H55.2844L60.3058 42.4545H64.2688L69.283 57H65.9876L62.3441 45.7784H62.2305L58.5799 57ZM58.3739 51.2827H66.158V53.6832H58.3739V51.2827ZM71.0337 57V42.4545H76.8576C77.9277 42.4545 78.8202 42.6132 79.5352 42.9304C80.2501 43.2476 80.7875 43.688 81.1474 44.2514C81.5072 44.8101 81.6871 45.4541 81.6871 46.1832C81.6871 46.7514 81.5735 47.2509 81.3462 47.6818C81.119 48.108 80.8065 48.4583 80.4087 48.733C80.0157 49.0028 79.5659 49.1946 79.0593 49.3082V49.4503C79.6133 49.474 80.1317 49.6302 80.6147 49.919C81.1024 50.2079 81.4978 50.6127 81.8008 51.1335C82.1038 51.6496 82.2553 52.2652 82.2553 52.9801C82.2553 53.7519 82.0636 54.4408 81.68 55.0469C81.3013 55.6482 80.7402 56.1241 79.9968 56.4744C79.2534 56.8248 78.3372 57 77.2482 57H71.0337ZM74.109 54.4858H76.6161C77.4731 54.4858 78.0981 54.3224 78.4911 53.9957C78.8841 53.6643 79.0806 53.224 79.0806 52.6747C79.0806 52.2723 78.9835 51.9171 78.7894 51.6094C78.5953 51.3016 78.3183 51.0601 77.9585 50.8849C77.6033 50.7098 77.1796 50.6222 76.6871 50.6222H74.109V54.4858ZM74.109 48.5412H76.3888C76.8103 48.5412 77.1843 48.4678 77.511 48.321C77.8424 48.1695 78.1029 47.9564 78.2923 47.6818C78.4864 47.4072 78.5835 47.0781 78.5835 46.6946C78.5835 46.169 78.3964 45.7453 78.0224 45.4233C77.6531 45.1013 77.1275 44.9403 76.4457 44.9403H74.109V48.5412ZM94.1126 57.1989C93.1088 57.1989 92.2139 57.0142 91.4279 56.6449C90.6467 56.2756 90.0264 55.7666 89.5671 55.1179C89.1078 54.4692 88.8687 53.7259 88.8498 52.8878H91.8327C91.8659 53.4512 92.1026 53.9081 92.543 54.2585C92.9833 54.6089 93.5065 54.7841 94.1126 54.7841C94.5955 54.7841 95.0217 54.6776 95.391 54.4645C95.765 54.2467 96.0562 53.946 96.2646 53.5625C96.4776 53.1742 96.5842 52.7292 96.5842 52.2273C96.5842 51.7159 96.4753 51.2661 96.2575 50.8778C96.0444 50.4896 95.7485 50.1866 95.3697 49.9688C94.9909 49.7509 94.5576 49.6397 94.07 49.6349C93.6438 49.6349 93.2295 49.7225 92.8271 49.8977C92.4293 50.0729 92.1192 50.312 91.8967 50.6151L89.1623 50.125L89.8512 42.4545H98.7433V44.9688H92.3867L92.0103 48.6122H92.0955C92.3512 48.2524 92.7371 47.9541 93.2532 47.7173C93.7693 47.4806 94.3469 47.3622 94.9862 47.3622C95.8621 47.3622 96.6433 47.5682 97.3299 47.9801C98.0165 48.392 98.5586 48.9579 98.9563 49.6776C99.354 50.3925 99.5505 51.2164 99.5458 52.1491C99.5505 53.1293 99.3233 54.0005 98.864 54.7628C98.4094 55.5204 97.7726 56.117 96.9535 56.5526C96.1391 56.9834 95.1921 57.1989 94.1126 57.1989ZM114.032 40.26H116.712V49.62H114.032V40.26ZM104.352 50.44H116.712V55.46H106.992V57.32H104.392V53.54H114.072V52.46H104.352V50.44ZM104.392 56.6H117.172V58.66H104.392V56.6ZM105.652 40.68H107.852V42.08C107.852 45.5 106.132 48.6 102.512 49.7L101.232 47.6C104.332 46.66 105.652 44.34 105.652 42.08V40.68ZM106.192 40.68H108.372V42.08C108.372 44.28 109.672 46.44 112.692 47.3L111.412 49.36C107.852 48.32 106.192 45.42 106.192 42.08V40.68Z" fill="white"/>
<defs>
<filter id="filter0_d_2854_69" x="0" y="0" width="158" height="108" filterUnits="userSpaceOnUse" color-interpolation-filters="sRGB">
<feFlood flood-opacity="0" result="BackgroundImageFix"/>
<feColorMatrix in="SourceAlpha" type="matrix" values="0 0 0 0 0 0 0 0 0 0 0 0 0 0 0 0 0 0 127 0" result="hardAlpha"/>
<feOffset dy="4"/>
<feGaussianBlur stdDeviation="2"/>
<feComposite in2="hardAlpha" operator="out"/>
<feColorMatrix type="matrix" values="0 0 0 0 0 0 0 0 0 0 0 0 0 0 0 0 0 0 0.25 0"/>
<feBlend mode="normal" in2="BackgroundImageFix" result="effect1_dropShadow_2854_69"/>
<feBlend mode="normal" in="SourceGraphic" in2="effect1_dropShadow_2854_69" result="shape"/>
</filter>
<filter id="filter1_i_2854_69" x="12.3333" y="9" width="133.333" height="85.8181" filterUnits="userSpaceOnUse" color-interpolation-filters="sRGB">
<feFlood flood-opacity="0" result="BackgroundImageFix"/>
<feBlend mode="normal" in="SourceGraphic" in2="BackgroundImageFix" result="shape"/>
<feColorMatrix in="SourceAlpha" type="matrix" values="0 0 0 0 0 0 0 0 0 0 0 0 0 0 0 0 0 0 127 0" result="hardAlpha"/>
<feOffset dy="4"/>
<feGaussianBlur stdDeviation="2"/>
<feComposite in2="hardAlpha" operator="arithmetic" k2="-1" k3="1"/>
<feColorMatrix type="matrix" values="0 0 0 0 0 0 0 0 0 0 0 0 0 0 0 0 0 0 0.25 0"/>
<feBlend mode="normal" in2="shape" result="effect1_innerShadow_2854_69"/>
</filter>
</defs>
</svg>
