<svg width="158" height="108" viewBox="0 0 158 108" fill="none" xmlns="http://www.w3.org/2000/svg">
<g filter="url(#filter0_d_2855_71)">
<rect x="4" width="150" height="100" rx="10" fill="white"/>
</g>
<g filter="url(#filter1_i_2855_71)">
<rect x="12.3334" y="9" width="133.333" height="81.8182" rx="10" fill="#323A45"/>
</g>
<path d="M42.688 57V42.4545H45.7633V54.4645H51.9991V57H42.688ZM56.9139 57H53.6184L58.6397 42.4545H62.6028L67.617 57H64.3216L60.6781 45.7784H60.5645L56.9139 57ZM56.7079 51.2827H64.492V53.6832H56.7079V51.2827ZM69.3677 57V42.4545H75.1916C76.2617 42.4545 77.1542 42.6132 77.8691 42.9304C78.5841 43.2476 79.1215 43.688 79.4814 44.2514C79.8412 44.8101 80.0211 45.4541 80.0211 46.1832C80.0211 46.7514 79.9075 47.2509 79.6802 47.6818C79.4529 48.108 79.1404 48.4583 78.7427 48.733C78.3497 49.0028 77.8999 49.1946 77.3933 49.3082V49.4503C77.9473 49.474 78.4657 49.6302 78.9487 49.919C79.4364 50.2079 79.8317 50.6127 80.1348 51.1335C80.4378 51.6496 80.5893 52.2652 80.5893 52.9801C80.5893 53.7519 80.3976 54.4408 80.014 55.0469C79.6352 55.6482 79.0742 56.1241 78.3308 56.4744C77.5874 56.8248 76.6712 57 75.5822 57H69.3677ZM72.443 54.4858H74.9501C75.8071 54.4858 76.4321 54.3224 76.8251 53.9957C77.2181 53.6643 77.4146 53.224 77.4146 52.6747C77.4146 52.2723 77.3175 51.9171 77.1234 51.6094C76.9293 51.3016 76.6523 51.0601 76.2924 50.8849C75.9373 50.7098 75.5136 50.6222 75.0211 50.6222H72.443V54.4858ZM72.443 48.5412H74.7228C75.1442 48.5412 75.5183 48.4678 75.845 48.321C76.1764 48.1695 76.4368 47.9564 76.6262 47.6818C76.8204 47.4072 76.9174 47.0781 76.9174 46.6946C76.9174 46.169 76.7304 45.7453 76.3564 45.4233C75.987 45.1013 75.4615 44.9403 74.7797 44.9403H72.443V48.5412ZM92.5602 57.1989C91.4664 57.1989 90.4934 57.0213 89.6412 56.6662C88.7936 56.3063 88.1284 55.8163 87.6454 55.196C87.1625 54.5758 86.921 53.8726 86.921 53.0866C86.921 52.4806 87.0583 51.9242 87.3329 51.4176C87.6123 50.9062 87.9911 50.4825 88.4693 50.1463C88.9475 49.8054 89.4825 49.5876 90.0744 49.4929V49.3935C89.2979 49.2372 88.6681 48.8608 88.1852 48.2642C87.7022 47.6629 87.4608 46.9645 87.4608 46.169C87.4608 45.4162 87.6809 44.7462 88.1213 44.1591C88.5616 43.5672 89.1653 43.1032 89.9324 42.767C90.7041 42.4261 91.5801 42.2557 92.5602 42.2557C93.5403 42.2557 94.4139 42.4261 95.1809 42.767C95.9527 43.108 96.5588 43.5743 96.9991 44.1662C97.4395 44.7533 97.662 45.4209 97.6667 46.169C97.662 46.9692 97.4158 47.6676 96.9281 48.2642C96.4404 48.8608 95.8154 49.2372 95.0531 49.3935V49.4929C95.6355 49.5876 96.1634 49.8054 96.6369 50.1463C97.1151 50.4825 97.4939 50.9062 97.7733 51.4176C98.0574 51.9242 98.2018 52.4806 98.2065 53.0866C98.2018 53.8726 97.9579 54.5758 97.475 55.196C96.992 55.8163 96.3244 56.3063 95.4721 56.6662C94.6246 57.0213 93.6539 57.1989 92.5602 57.1989ZM92.5602 54.9403C93.0479 54.9403 93.474 54.8527 93.8386 54.6776C94.2032 54.4976 94.4873 54.2514 94.6909 53.9389C94.8992 53.6217 95.0034 53.2571 95.0034 52.8452C95.0034 52.4238 94.8968 52.0521 94.6838 51.7301C94.4707 51.4034 94.1819 51.1477 93.8173 50.9631C93.4527 50.7737 93.0337 50.679 92.5602 50.679C92.0914 50.679 91.6724 50.7737 91.3031 50.9631C90.9338 51.1477 90.6426 51.4034 90.4295 51.7301C90.2212 52.0521 90.117 52.4238 90.117 52.8452C90.117 53.2571 90.2188 53.6217 90.4224 53.9389C90.626 54.2514 90.9125 54.4976 91.2818 54.6776C91.6511 54.8527 92.0772 54.9403 92.5602 54.9403ZM92.5602 48.4418C92.9674 48.4418 93.3296 48.3589 93.6468 48.1932C93.9641 48.0275 94.2127 47.7978 94.3926 47.5043C94.5725 47.2107 94.6625 46.8722 94.6625 46.4886C94.6625 46.1098 94.5725 45.7784 94.3926 45.4943C94.2127 45.2055 93.9664 44.9806 93.6539 44.8196C93.3414 44.6539 92.9769 44.571 92.5602 44.571C92.1483 44.571 91.7837 44.6539 91.4664 44.8196C91.1492 44.9806 90.9006 45.2055 90.7207 45.4943C90.5455 45.7784 90.4579 46.1098 90.4579 46.4886C90.4579 46.8722 90.5479 47.2107 90.7278 47.5043C90.9077 47.7978 91.1563 48.0275 91.4735 48.1932C91.7908 48.3589 92.153 48.4418 92.5602 48.4418ZM112.698 40.26H115.378V49.62H112.698V40.26ZM103.018 50.44H115.378V55.46H105.658V57.32H103.058V53.54H112.738V52.46H103.018V50.44ZM103.058 56.6H115.838V58.66H103.058V56.6ZM104.318 40.68H106.518V42.08C106.518 45.5 104.798 48.6 101.178 49.7L99.8977 47.6C102.998 46.66 104.318 44.34 104.318 42.08V40.68ZM104.858 40.68H107.038V42.08C107.038 44.28 108.338 46.44 111.358 47.3L110.078 49.36C106.518 48.32 104.858 45.42 104.858 42.08V40.68Z" fill="white"/>
<defs>
<filter id="filter0_d_2855_71" x="0" y="0" width="158" height="108" filterUnits="userSpaceOnUse" color-interpolation-filters="sRGB">
<feFlood flood-opacity="0" result="BackgroundImageFix"/>
<feColorMatrix in="SourceAlpha" type="matrix" values="0 0 0 0 0 0 0 0 0 0 0 0 0 0 0 0 0 0 127 0" result="hardAlpha"/>
<feOffset dy="4"/>
<feGaussianBlur stdDeviation="2"/>
<feComposite in2="hardAlpha" operator="out"/>
<feColorMatrix type="matrix" values="0 0 0 0 0 0 0 0 0 0 0 0 0 0 0 0 0 0 0.25 0"/>
<feBlend mode="normal" in2="BackgroundImageFix" result="effect1_dropShadow_2855_71"/>
<feBlend mode="normal" in="SourceGraphic" in2="effect1_dropShadow_2855_71" result="shape"/>
</filter>
<filter id="filter1_i_2855_71" x="12.3334" y="9" width="133.333" height="85.8181" filterUnits="userSpaceOnUse" color-interpolation-filters="sRGB">
<feFlood flood-opacity="0" result="BackgroundImageFix"/>
<feBlend mode="normal" in="SourceGraphic" in2="BackgroundImageFix" result="shape"/>
<feColorMatrix in="SourceAlpha" type="matrix" values="0 0 0 0 0 0 0 0 0 0 0 0 0 0 0 0 0 0 127 0" result="hardAlpha"/>
<feOffset dy="4"/>
<feGaussianBlur stdDeviation="2"/>
<feComposite in2="hardAlpha" operator="arithmetic" k2="-1" k3="1"/>
<feColorMatrix type="matrix" values="0 0 0 0 0 0 0 0 0 0 0 0 0 0 0 0 0 0 0.25 0"/>
<feBlend mode="normal" in2="shape" result="effect1_innerShadow_2855_71"/>
</filter>
</defs>
</svg>
