<svg width="158" height="108" viewBox="0 0 158 108" fill="none" xmlns="http://www.w3.org/2000/svg">
<g filter="url(#filter0_d_2854_70)">
<rect x="4" width="150" height="100" rx="10" fill="#3CB0B8"/>
</g>
<g filter="url(#filter1_i_2854_70)">
<rect x="12.3333" y="9" width="133.333" height="81.8182" rx="10" fill="#323A45"/>
</g>
<path d="M42.6978 57V42.4545H45.7731V54.4645H52.0089V57H42.6978ZM56.9237 57H53.6282L58.6495 42.4545H62.6126L67.6268 57H64.3313L60.6879 45.7784H60.5742L56.9237 57ZM56.7177 51.2827H64.5018V53.6832H56.7177V51.2827ZM69.3775 57V42.4545H75.2013C76.2714 42.4545 77.1639 42.6132 77.8789 42.9304C78.5939 43.2476 79.1313 43.688 79.4911 44.2514C79.851 44.8101 80.0309 45.4541 80.0309 46.1832C80.0309 46.7514 79.9173 47.2509 79.69 47.6818C79.4627 48.108 79.1502 48.4583 78.7525 48.733C78.3595 49.0028 77.9097 49.1946 77.4031 49.3082V49.4503C77.957 49.474 78.4755 49.6302 78.9585 49.919C79.4461 50.2079 79.8415 50.6127 80.1445 51.1335C80.4476 51.6496 80.5991 52.2652 80.5991 52.9801C80.5991 53.7519 80.4073 54.4408 80.0238 55.0469C79.645 55.6482 79.0839 56.1241 78.3406 56.4744C77.5972 56.8248 76.681 57 75.592 57H69.3775ZM72.4528 54.4858H74.9599C75.8169 54.4858 76.4419 54.3224 76.8349 53.9957C77.2279 53.6643 77.4244 53.224 77.4244 52.6747C77.4244 52.2723 77.3273 51.9171 77.1332 51.6094C76.939 51.3016 76.6621 51.0601 76.3022 50.8849C75.9471 50.7098 75.5233 50.6222 75.0309 50.6222H72.4528V54.4858ZM72.4528 48.5412H74.7326C75.154 48.5412 75.5281 48.4678 75.8548 48.321C76.1862 48.1695 76.4466 47.9564 76.636 47.6818C76.8301 47.4072 76.9272 47.0781 76.9272 46.6946C76.9272 46.169 76.7402 45.7453 76.3661 45.4233C75.9968 45.1013 75.4712 44.9403 74.7894 44.9403H72.4528V48.5412ZM92.4066 42.2557C93.1547 42.2557 93.8744 42.3812 94.5657 42.6321C95.2617 42.883 95.882 43.2831 96.4265 43.8324C96.9757 44.3816 97.409 45.1108 97.7262 46.0199C98.0482 46.9242 98.2115 48.0346 98.2163 49.3509C98.2163 50.5866 98.0766 51.6899 97.7972 52.6605C97.5226 53.6264 97.1272 54.4479 96.6112 55.125C96.0951 55.8021 95.4724 56.3182 94.7433 56.6733C94.0141 57.0237 93.1997 57.1989 92.3001 57.1989C91.3294 57.1989 90.4724 57.0118 89.729 56.6378C88.9857 56.259 88.3867 55.7453 87.9322 55.0966C87.4824 54.4432 87.2101 53.7093 87.1154 52.8949H90.1481C90.2665 53.4252 90.515 53.8371 90.8938 54.1307C91.2726 54.4195 91.7414 54.5639 92.3001 54.5639C93.247 54.5639 93.9667 54.152 94.4592 53.3281C94.9516 52.4995 95.2002 51.3655 95.2049 49.9261H95.1055C94.8877 50.3523 94.5941 50.7192 94.2248 51.027C93.8555 51.33 93.4317 51.5644 92.9535 51.7301C92.48 51.8958 91.9757 51.9787 91.4407 51.9787C90.5837 51.9787 89.819 51.7775 89.1467 51.375C88.4743 50.9725 87.944 50.4186 87.5558 49.7131C87.1675 49.0076 86.9734 48.2027 86.9734 47.2983C86.9686 46.3229 87.1935 45.4541 87.6481 44.6918C88.1026 43.9295 88.7371 43.3329 89.5515 42.902C90.3706 42.4664 91.3223 42.2509 92.4066 42.2557ZM92.4279 44.6705C91.9497 44.6705 91.5236 44.7841 91.1495 45.0114C90.7802 45.2386 90.4866 45.544 90.2688 45.9276C90.0558 46.3111 89.9516 46.7396 89.9563 47.2131C89.9563 47.6913 90.0605 48.1222 90.2688 48.5057C90.4819 48.8845 90.7707 49.1875 91.1353 49.4148C91.5046 49.6373 91.926 49.7486 92.3995 49.7486C92.7546 49.7486 93.0837 49.6823 93.3867 49.5497C93.6897 49.4171 93.9525 49.2348 94.1751 49.0028C94.4023 48.7661 94.5799 48.4938 94.7077 48.1861C94.8356 47.8783 94.8995 47.5516 94.8995 47.206C94.8948 46.7467 94.7859 46.3253 94.5728 45.9418C94.3597 45.5582 94.0662 45.2505 93.6921 45.0185C93.3181 44.7865 92.8967 44.6705 92.4279 44.6705ZM112.688 40.26H115.368V49.62H112.688V40.26ZM103.008 50.44H115.368V55.46H105.648V57.32H103.048V53.54H112.728V52.46H103.008V50.44ZM103.048 56.6H115.828V58.66H103.048V56.6ZM104.308 40.68H106.508V42.08C106.508 45.5 104.788 48.6 101.168 49.7L99.888 47.6C102.988 46.66 104.308 44.34 104.308 42.08V40.68ZM104.848 40.68H107.028V42.08C107.028 44.28 108.328 46.44 111.348 47.3L110.068 49.36C106.508 48.32 104.848 45.42 104.848 42.08V40.68Z" fill="white"/>
<defs>
<filter id="filter0_d_2854_70" x="0" y="0" width="158" height="108" filterUnits="userSpaceOnUse" color-interpolation-filters="sRGB">
<feFlood flood-opacity="0" result="BackgroundImageFix"/>
<feColorMatrix in="SourceAlpha" type="matrix" values="0 0 0 0 0 0 0 0 0 0 0 0 0 0 0 0 0 0 127 0" result="hardAlpha"/>
<feOffset dy="4"/>
<feGaussianBlur stdDeviation="2"/>
<feComposite in2="hardAlpha" operator="out"/>
<feColorMatrix type="matrix" values="0 0 0 0 0 0 0 0 0 0 0 0 0 0 0 0 0 0 0.25 0"/>
<feBlend mode="normal" in2="BackgroundImageFix" result="effect1_dropShadow_2854_70"/>
<feBlend mode="normal" in="SourceGraphic" in2="effect1_dropShadow_2854_70" result="shape"/>
</filter>
<filter id="filter1_i_2854_70" x="12.3333" y="9" width="133.333" height="85.8181" filterUnits="userSpaceOnUse" color-interpolation-filters="sRGB">
<feFlood flood-opacity="0" result="BackgroundImageFix"/>
<feBlend mode="normal" in="SourceGraphic" in2="BackgroundImageFix" result="shape"/>
<feColorMatrix in="SourceAlpha" type="matrix" values="0 0 0 0 0 0 0 0 0 0 0 0 0 0 0 0 0 0 127 0" result="hardAlpha"/>
<feOffset dy="4"/>
<feGaussianBlur stdDeviation="2"/>
<feComposite in2="hardAlpha" operator="arithmetic" k2="-1" k3="1"/>
<feColorMatrix type="matrix" values="0 0 0 0 0 0 0 0 0 0 0 0 0 0 0 0 0 0 0.25 0"/>
<feBlend mode="normal" in2="shape" result="effect1_innerShadow_2854_70"/>
</filter>
</defs>
</svg>
