<svg width="158" height="108" viewBox="0 0 158 108" fill="none" xmlns="http://www.w3.org/2000/svg">
<g filter="url(#filter0_d_2855_91)">
<rect x="4" width="150" height="100" rx="10" fill="white" fill-opacity="0.866667" shape-rendering="crispEdges"/>
</g>
<g filter="url(#filter1_i_2855_91)">
<rect x="12.3334" y="9" width="133.333" height="81.8182" rx="10" fill="#323A45"/>
</g>
<path d="M34.8913 57.1989C33.8307 57.1989 32.8861 57.0166 32.0575 56.652C31.2337 56.2827 30.5826 55.776 30.1044 55.1321C29.6309 54.4834 29.3871 53.7353 29.3729 52.8878H32.4695C32.4884 53.2429 32.6044 53.5554 32.8175 53.8253C33.0353 54.0904 33.3241 54.2964 33.6839 54.4432C34.0438 54.59 34.4486 54.6634 34.8984 54.6634C35.3672 54.6634 35.7815 54.5805 36.1413 54.4148C36.5012 54.2491 36.7829 54.0194 36.9865 53.7259C37.1901 53.4323 37.2919 53.0937 37.2919 52.7102C37.2919 52.322 37.183 51.9787 36.9652 51.6804C36.7521 51.3774 36.4444 51.1406 36.0419 50.9702C35.6442 50.7997 35.1707 50.7145 34.6214 50.7145H33.2649V48.456H34.6214C35.0855 48.456 35.495 48.3755 35.8501 48.2145C36.21 48.0535 36.4893 47.831 36.6882 47.5469C36.8871 47.258 36.9865 46.9219 36.9865 46.5384C36.9865 46.1738 36.8989 45.8542 36.7237 45.5795C36.5533 45.3002 36.3118 45.0824 35.9993 44.9261C35.6915 44.7699 35.3317 44.6918 34.9197 44.6918C34.5031 44.6918 34.1219 44.7675 33.7763 44.919C33.4306 45.0658 33.1536 45.2765 32.9453 45.5511C32.737 45.8258 32.6257 46.1477 32.6115 46.517H29.6641C29.6783 45.679 29.9174 44.9403 30.3814 44.3011C30.8454 43.6619 31.4704 43.1624 32.2564 42.8026C33.0471 42.438 33.9396 42.2557 34.9339 42.2557C35.9377 42.2557 36.8161 42.438 37.5689 42.8026C38.3217 43.1671 38.9065 43.6596 39.3232 44.2798C39.7446 44.8954 39.9529 45.5866 39.9482 46.3537C39.9529 47.1681 39.6996 47.8475 39.1882 48.392C38.6816 48.9366 38.0211 49.2822 37.2067 49.429V49.5426C38.2768 49.6799 39.0911 50.0516 39.6499 50.6577C40.2133 51.259 40.4927 52.0118 40.4879 52.9162C40.4927 53.7448 40.2536 54.4811 39.7706 55.125C39.2924 55.7689 38.6319 56.2756 37.7891 56.6449C36.9463 57.0142 35.9804 57.1989 34.8913 57.1989ZM47.94 57H42.7837V42.4545H47.9826C49.4457 42.4545 50.7051 42.7457 51.761 43.3281C52.8169 43.9058 53.6289 44.7367 54.1971 45.821C54.77 46.9053 55.0565 48.2027 55.0565 49.7131C55.0565 51.2282 54.77 52.5303 54.1971 53.6193C53.6289 54.7083 52.8121 55.544 51.7468 56.1264C50.6862 56.7088 49.4173 57 47.94 57ZM45.859 54.3651H47.8121C48.7212 54.3651 49.4859 54.2041 50.1062 53.8821C50.7312 53.5554 51.1999 53.0511 51.5124 52.3693C51.8297 51.6828 51.9883 50.7973 51.9883 49.7131C51.9883 48.6383 51.8297 47.7599 51.5124 47.0781C51.1999 46.3963 50.7335 45.8944 50.1133 45.5724C49.493 45.2505 48.7283 45.0895 47.8192 45.0895H45.859V54.3651ZM56.8903 54.46H73.6503V56.64H56.8903V54.46ZM58.1703 41.86H72.2703V43.98H58.1703V41.86ZM58.2503 49.52H72.2103V51.66H58.2503V49.52ZM60.6903 43.82H63.3503V49.72H60.6903V43.82ZM67.1103 43.82H69.7503V49.72H67.1103V43.82ZM87.9888 40.28H90.6688V53.92H87.9888V40.28ZM78.2688 56.34H91.1088V58.46H78.2688V56.34ZM78.2688 52.78H80.9288V57.42H78.2688V52.78ZM76.2288 49.44H77.8488C81.7088 49.44 83.9688 49.34 86.4888 48.86L86.7688 50.98C84.1688 51.48 81.8088 51.58 77.8488 51.58H76.2288V49.44ZM76.2088 41.48H84.7288V47.4H78.8488V50.04H76.2288V45.44H82.1088V43.6H76.2088V41.48ZM106.567 40.24H109.207V58.82H106.567V40.24ZM103.387 46.76H106.867V48.92H103.387V46.76ZM94.5072 52.48H95.9872C99.0472 52.48 101.327 52.44 103.947 52.02L104.187 54.14C101.507 54.56 99.1072 54.64 95.9872 54.64H94.5072V52.48ZM94.5072 41.8H103.087V43.96H97.1472V53.16H94.5072V41.8ZM96.5472 46.96H102.447V49.04H96.5472V46.96ZM124.786 40.26H127.466V49.62H124.786V40.26ZM115.106 50.44H127.466V55.46H117.746V57.32H115.146V53.54H124.826V52.46H115.106V50.44ZM115.146 56.6H127.926V58.66H115.146V56.6ZM116.406 40.68H118.606V42.08C118.606 45.5 116.886 48.6 113.266 49.7L111.986 47.6C115.086 46.66 116.406 44.34 116.406 42.08V40.68ZM116.946 40.68H119.126V42.08C119.126 44.28 120.426 46.44 123.446 47.3L122.166 49.36C118.606 48.32 116.946 45.42 116.946 42.08V40.68Z" fill="white"/>
<defs>
<filter id="filter0_d_2855_91" x="0" y="0" width="158" height="108" filterUnits="userSpaceOnUse" color-interpolation-filters="sRGB">
<feFlood flood-opacity="0" result="BackgroundImageFix"/>
<feColorMatrix in="SourceAlpha" type="matrix" values="0 0 0 0 0 0 0 0 0 0 0 0 0 0 0 0 0 0 127 0" result="hardAlpha"/>
<feOffset dy="4"/>
<feGaussianBlur stdDeviation="2"/>
<feComposite in2="hardAlpha" operator="out"/>
<feColorMatrix type="matrix" values="0 0 0 0 0 0 0 0 0 0 0 0 0 0 0 0 0 0 0.25 0"/>
<feBlend mode="normal" in2="BackgroundImageFix" result="effect1_dropShadow_2855_91"/>
<feBlend mode="normal" in="SourceGraphic" in2="effect1_dropShadow_2855_91" result="shape"/>
</filter>
<filter id="filter1_i_2855_91" x="12.3334" y="9" width="133.333" height="85.8181" filterUnits="userSpaceOnUse" color-interpolation-filters="sRGB">
<feFlood flood-opacity="0" result="BackgroundImageFix"/>
<feBlend mode="normal" in="SourceGraphic" in2="BackgroundImageFix" result="shape"/>
<feColorMatrix in="SourceAlpha" type="matrix" values="0 0 0 0 0 0 0 0 0 0 0 0 0 0 0 0 0 0 127 0" result="hardAlpha"/>
<feOffset dy="4"/>
<feGaussianBlur stdDeviation="2"/>
<feComposite in2="hardAlpha" operator="arithmetic" k2="-1" k3="1"/>
<feColorMatrix type="matrix" values="0 0 0 0 0 0 0 0 0 0 0 0 0 0 0 0 0 0 0.25 0"/>
<feBlend mode="normal" in2="shape" result="effect1_innerShadow_2855_91"/>
</filter>
</defs>
</svg>
