<svg width="158" height="108" viewBox="0 0 158 108" fill="none" xmlns="http://www.w3.org/2000/svg">
<g filter="url(#filter0_d_2855_77)">
<rect x="4" width="150" height="100" rx="10" fill="#3CB0B8"/>
</g>
<g filter="url(#filter1_i_2855_77)">
<rect x="12.3334" y="9" width="133.333" height="81.8182" rx="10" fill="#323A45"/>
</g>
<path d="M25.9177 54.46H42.6777V56.64H25.9177V54.46ZM27.1977 41.86H41.2977V43.98H27.1977V41.86ZM27.2777 49.52H41.2377V51.66H27.2777V49.52ZM29.7177 43.82H32.3777V49.72H29.7177V43.82ZM36.1377 43.82H38.7777V49.72H36.1377V43.82ZM44.3161 54.58H61.0761V56.74H44.3161V54.58ZM51.3361 51.08H53.9961V55.46H51.3361V51.08ZM46.1961 41.46H59.1961V47.62H48.8761V50.74H46.2361V45.54H56.5561V43.56H46.1961V41.46ZM46.2361 49.68H59.6161V51.82H46.2361V49.68ZM70.3545 44.84H73.2545V46.98H70.3545V44.84ZM72.3345 40.62H74.8145V51.46H72.3345V40.62ZM65.9545 43.04H68.0145V44.22C68.0145 47.32 66.7945 50.22 63.7945 51.42L62.4545 49.36C64.9345 48.38 65.9545 46.28 65.9545 44.22V43.04ZM66.4545 43.04H68.5145V44.22C68.5145 46.2 69.4745 48.12 71.7945 49.04L70.4945 51.08C67.5945 49.96 66.4545 47.2 66.4545 44.22V43.04ZM63.0345 41.58H71.2145V43.7H63.0345V41.58ZM75.9545 40.26H78.4745V51.54H75.9545V40.26ZM65.7545 52.22H78.4745V58.78H75.8345V54.34H65.7545V52.22ZM83.073 49.8H96.093V51.88H83.073V49.8ZM81.113 54.5H97.873V56.66H81.113V54.5ZM83.073 41.6H95.933V43.74H85.773V50.38H83.073V41.6ZM84.953 45.68H95.513V47.74H84.953V45.68ZM109.876 57.1989C108.815 57.1989 107.871 57.0166 107.042 56.652C106.218 56.2827 105.567 55.776 105.089 55.1321C104.615 54.4834 104.371 53.7353 104.357 52.8878H107.454C107.473 53.2429 107.589 53.5554 107.802 53.8253C108.02 54.0904 108.308 54.2964 108.668 54.4432C109.028 54.59 109.433 54.6634 109.883 54.6634C110.352 54.6634 110.766 54.5805 111.126 54.4148C111.486 54.2491 111.767 54.0194 111.971 53.7259C112.174 53.4323 112.276 53.0937 112.276 52.7102C112.276 52.322 112.167 51.9787 111.95 51.6804C111.737 51.3774 111.429 51.1406 111.026 50.9702C110.629 50.7997 110.155 50.7145 109.606 50.7145H108.249V48.456H109.606C110.07 48.456 110.479 48.3755 110.835 48.2145C111.194 48.0535 111.474 47.831 111.673 47.5469C111.871 47.258 111.971 46.9219 111.971 46.5384C111.971 46.1738 111.883 45.8542 111.708 45.5795C111.538 45.3002 111.296 45.0824 110.984 44.9261C110.676 44.7699 110.316 44.6918 109.904 44.6918C109.487 44.6918 109.106 44.7675 108.761 44.919C108.415 45.0658 108.138 45.2765 107.93 45.5511C107.721 45.8258 107.61 46.1477 107.596 46.517H104.648C104.663 45.679 104.902 44.9403 105.366 44.3011C105.83 43.6619 106.455 43.1624 107.241 42.8026C108.031 42.438 108.924 42.2557 109.918 42.2557C110.922 42.2557 111.8 42.438 112.553 42.8026C113.306 43.1671 113.891 43.6596 114.308 44.2798C114.729 44.8954 114.937 45.5866 114.933 46.3537C114.937 47.1681 114.684 47.8475 114.173 48.392C113.666 48.9366 113.005 49.2822 112.191 49.429V49.5426C113.261 49.6799 114.076 50.0516 114.634 50.6577C115.198 51.259 115.477 52.0118 115.472 52.9162C115.477 53.7448 115.238 54.4811 114.755 55.125C114.277 55.7689 113.616 56.2756 112.773 56.6449C111.931 57.0142 110.965 57.1989 109.876 57.1989ZM130.024 40.26H132.704V49.62H130.024V40.26ZM120.344 50.44H132.704V55.46H122.984V57.32H120.384V53.54H130.064V52.46H120.344V50.44ZM120.384 56.6H133.164V58.66H120.384V56.6ZM121.644 40.68H123.844V42.08C123.844 45.5 122.124 48.6 118.504 49.7L117.224 47.6C120.324 46.66 121.644 44.34 121.644 42.08V40.68ZM122.184 40.68H124.364V42.08C124.364 44.28 125.664 46.44 128.684 47.3L127.404 49.36C123.844 48.32 122.184 45.42 122.184 42.08V40.68Z" fill="white"/>
<defs>
<filter id="filter0_d_2855_77" x="0" y="0" width="158" height="108" filterUnits="userSpaceOnUse" color-interpolation-filters="sRGB">
<feFlood flood-opacity="0" result="BackgroundImageFix"/>
<feColorMatrix in="SourceAlpha" type="matrix" values="0 0 0 0 0 0 0 0 0 0 0 0 0 0 0 0 0 0 127 0" result="hardAlpha"/>
<feOffset dy="4"/>
<feGaussianBlur stdDeviation="2"/>
<feComposite in2="hardAlpha" operator="out"/>
<feColorMatrix type="matrix" values="0 0 0 0 0 0 0 0 0 0 0 0 0 0 0 0 0 0 0.25 0"/>
<feBlend mode="normal" in2="BackgroundImageFix" result="effect1_dropShadow_2855_77"/>
<feBlend mode="normal" in="SourceGraphic" in2="effect1_dropShadow_2855_77" result="shape"/>
</filter>
<filter id="filter1_i_2855_77" x="12.3334" y="9" width="133.333" height="85.8181" filterUnits="userSpaceOnUse" color-interpolation-filters="sRGB">
<feFlood flood-opacity="0" result="BackgroundImageFix"/>
<feBlend mode="normal" in="SourceGraphic" in2="BackgroundImageFix" result="shape"/>
<feColorMatrix in="SourceAlpha" type="matrix" values="0 0 0 0 0 0 0 0 0 0 0 0 0 0 0 0 0 0 127 0" result="hardAlpha"/>
<feOffset dy="4"/>
<feGaussianBlur stdDeviation="2"/>
<feComposite in2="hardAlpha" operator="arithmetic" k2="-1" k3="1"/>
<feColorMatrix type="matrix" values="0 0 0 0 0 0 0 0 0 0 0 0 0 0 0 0 0 0 0.25 0"/>
<feBlend mode="normal" in2="shape" result="effect1_innerShadow_2855_77"/>
</filter>
</defs>
</svg>
