<svg width="158" height="108" viewBox="0 0 158 108" fill="none" xmlns="http://www.w3.org/2000/svg">
<g filter="url(#filter0_d_1648_1916)">
<rect x="4" width="150" height="100" rx="10" fill="#F6F6F6"/>
</g>
<g filter="url(#filter1_i_1648_1916)">
<rect x="12.3334" y="9" width="133.333" height="81.8182" rx="10" fill="#323A45"/>
</g>
<path d="M26.9502 54.46H43.7102V56.64H26.9502V54.46ZM28.2302 41.86H42.3302V43.98H28.2302V41.86ZM28.3102 49.52H42.2702V51.66H28.3102V49.52ZM30.7502 43.82H33.4102V49.72H30.7502V43.82ZM37.1702 43.82H39.8102V49.72H37.1702V43.82ZM45.3486 54.58H62.1086V56.74H45.3486V54.58ZM52.3686 51.08H55.0286V55.46H52.3686V51.08ZM47.2286 41.46H60.2286V47.62H49.9086V50.74H47.2686V45.54H57.5886V43.56H47.2286V41.46ZM47.2686 49.68H60.6486V51.82H47.2686V49.68ZM71.3871 44.84H74.2871V46.98H71.3871V44.84ZM73.3671 40.62H75.8471V51.46H73.3671V40.62ZM66.9871 43.04H69.0471V44.22C69.0471 47.32 67.8271 50.22 64.8271 51.42L63.4871 49.36C65.9671 48.38 66.9871 46.28 66.9871 44.22V43.04ZM67.4871 43.04H69.5471V44.22C69.5471 46.2 70.5071 48.12 72.8271 49.04L71.5271 51.08C68.6271 49.96 67.4871 47.2 67.4871 44.22V43.04ZM64.0671 41.58H72.2471V43.7H64.0671V41.58ZM76.9871 40.26H79.5071V51.54H76.9871V40.26ZM66.7871 52.22H79.5071V58.78H76.8671V54.34H66.7871V52.22ZM84.1055 49.8H97.1255V51.88H84.1055V49.8ZM82.1455 54.5H98.9055V56.66H82.1455V54.5ZM84.1055 41.6H96.9655V43.74H86.8055V50.38H84.1055V41.6ZM85.9855 45.68H96.5455V47.74H85.9855V45.68ZM111.86 42.4545V57H108.785V45.3736H108.699L105.368 47.4616V44.7344L108.969 42.4545H111.86ZM127.658 40.26H130.338V49.62H127.658V40.26ZM117.978 50.44H130.338V55.46H120.618V57.32H118.018V53.54H127.698V52.46H117.978V50.44ZM118.018 56.6H130.798V58.66H118.018V56.6ZM119.278 40.68H121.478V42.08C121.478 45.5 119.758 48.6 116.138 49.7L114.858 47.6C117.958 46.66 119.278 44.34 119.278 42.08V40.68ZM119.818 40.68H121.998V42.08C121.998 44.28 123.298 46.44 126.318 47.3L125.038 49.36C121.478 48.32 119.818 45.42 119.818 42.08V40.68Z" fill="white"/>
<defs>
<filter id="filter0_d_1648_1916" x="0" y="0" width="158" height="108" filterUnits="userSpaceOnUse" color-interpolation-filters="sRGB">
<feFlood flood-opacity="0" result="BackgroundImageFix"/>
<feColorMatrix in="SourceAlpha" type="matrix" values="0 0 0 0 0 0 0 0 0 0 0 0 0 0 0 0 0 0 127 0" result="hardAlpha"/>
<feOffset dy="4"/>
<feGaussianBlur stdDeviation="2"/>
<feComposite in2="hardAlpha" operator="out"/>
<feColorMatrix type="matrix" values="0 0 0 0 0 0 0 0 0 0 0 0 0 0 0 0 0 0 0.25 0"/>
<feBlend mode="normal" in2="BackgroundImageFix" result="effect1_dropShadow_1648_1916"/>
<feBlend mode="normal" in="SourceGraphic" in2="effect1_dropShadow_1648_1916" result="shape"/>
</filter>
<filter id="filter1_i_1648_1916" x="12.3334" y="9" width="133.333" height="85.8181" filterUnits="userSpaceOnUse" color-interpolation-filters="sRGB">
<feFlood flood-opacity="0" result="BackgroundImageFix"/>
<feBlend mode="normal" in="SourceGraphic" in2="BackgroundImageFix" result="shape"/>
<feColorMatrix in="SourceAlpha" type="matrix" values="0 0 0 0 0 0 0 0 0 0 0 0 0 0 0 0 0 0 127 0" result="hardAlpha"/>
<feOffset dy="4"/>
<feGaussianBlur stdDeviation="2"/>
<feComposite in2="hardAlpha" operator="arithmetic" k2="-1" k3="1"/>
<feColorMatrix type="matrix" values="0 0 0 0 0 0 0 0 0 0 0 0 0 0 0 0 0 0 0.25 0"/>
<feBlend mode="normal" in2="shape" result="effect1_innerShadow_1648_1916"/>
</filter>
</defs>
</svg>
