<svg width="158" height="108" viewBox="0 0 158 108" fill="none" xmlns="http://www.w3.org/2000/svg">
<g filter="url(#filter0_d_2855_89)">
<rect x="4" width="150" height="100" rx="10" fill="white" fill-opacity="0.866667" shape-rendering="crispEdges"/>
</g>
<g filter="url(#filter1_i_2855_89)">
<rect x="12.3334" y="9" width="133.333" height="81.8182" rx="10" fill="#323A45"/>
</g>
<path d="M25.0641 54.46H41.8241V56.64H25.0641V54.46ZM26.3441 41.86H40.4441V43.98H26.3441V41.86ZM26.4241 49.52H40.3841V51.66H26.4241V49.52ZM28.8641 43.82H31.5241V49.72H28.8641V43.82ZM35.2841 43.82H37.9241V49.72H35.2841V43.82ZM43.4626 54.58H60.2226V56.74H43.4626V54.58ZM50.4826 51.08H53.1426V55.46H50.4826V51.08ZM45.3426 41.46H58.3426V47.62H48.0226V50.74H45.3826V45.54H55.7026V43.56H45.3426V41.46ZM45.3826 49.68H58.7626V51.82H45.3826V49.68ZM69.501 44.84H72.401V46.98H69.501V44.84ZM71.481 40.62H73.961V51.46H71.481V40.62ZM65.101 43.04H67.161V44.22C67.161 47.32 65.941 50.22 62.941 51.42L61.601 49.36C64.081 48.38 65.101 46.28 65.101 44.22V43.04ZM65.601 43.04H67.661V44.22C67.661 46.2 68.621 48.12 70.941 49.04L69.641 51.08C66.741 49.96 65.601 47.2 65.601 44.22V43.04ZM62.181 41.58H70.361V43.7H62.181V41.58ZM75.101 40.26H77.621V51.54H75.101V40.26ZM64.901 52.22H77.621V58.78H74.981V54.34H64.901V52.22ZM82.2195 49.8H95.2395V51.88H82.2195V49.8ZM80.2595 54.5H97.0195V56.66H80.2595V54.5ZM82.2195 41.6H95.0795V43.74H84.9195V50.38H82.2195V41.6ZM84.0995 45.68H94.6595V47.74H84.0995V45.68ZM108.958 57.1989C107.954 57.1989 107.06 57.0142 106.274 56.6449C105.492 56.2756 104.872 55.7666 104.413 55.1179C103.954 54.4692 103.714 53.7259 103.695 52.8878H106.678C106.712 53.4512 106.948 53.9081 107.389 54.2585C107.829 54.6089 108.352 54.7841 108.958 54.7841C109.441 54.7841 109.867 54.6776 110.237 54.4645C110.611 54.2467 110.902 53.946 111.11 53.5625C111.323 53.1742 111.43 52.7292 111.43 52.2273C111.43 51.7159 111.321 51.2661 111.103 50.8778C110.89 50.4896 110.594 50.1866 110.215 49.9688C109.837 49.7509 109.403 49.6397 108.916 49.6349C108.49 49.6349 108.075 49.7225 107.673 49.8977C107.275 50.0729 106.965 50.312 106.742 50.6151L104.008 50.125L104.697 42.4545H113.589V44.9688H107.232L106.856 48.6122H106.941C107.197 48.2524 107.583 47.9541 108.099 47.7173C108.615 47.4806 109.193 47.3622 109.832 47.3622C110.708 47.3622 111.489 47.5682 112.176 47.9801C112.862 48.392 113.404 48.9579 113.802 49.6776C114.2 50.3925 114.396 51.2164 114.392 52.1491C114.396 53.1293 114.169 54.0005 113.71 54.7628C113.255 55.5204 112.618 56.117 111.799 56.5526C110.985 56.9834 110.038 57.1989 108.958 57.1989ZM128.877 40.26H131.557V49.62H128.877V40.26ZM119.197 50.44H131.557V55.46H121.837V57.32H119.237V53.54H128.917V52.46H119.197V50.44ZM119.237 56.6H132.017V58.66H119.237V56.6ZM120.497 40.68H122.697V42.08C122.697 45.5 120.977 48.6 117.357 49.7L116.077 47.6C119.177 46.66 120.497 44.34 120.497 42.08V40.68ZM121.037 40.68H123.217V42.08C123.217 44.28 124.517 46.44 127.537 47.3L126.257 49.36C122.697 48.32 121.037 45.42 121.037 42.08V40.68Z" fill="white"/>
<defs>
<filter id="filter0_d_2855_89" x="0" y="0" width="158" height="108" filterUnits="userSpaceOnUse" color-interpolation-filters="sRGB">
<feFlood flood-opacity="0" result="BackgroundImageFix"/>
<feColorMatrix in="SourceAlpha" type="matrix" values="0 0 0 0 0 0 0 0 0 0 0 0 0 0 0 0 0 0 127 0" result="hardAlpha"/>
<feOffset dy="4"/>
<feGaussianBlur stdDeviation="2"/>
<feComposite in2="hardAlpha" operator="out"/>
<feColorMatrix type="matrix" values="0 0 0 0 0 0 0 0 0 0 0 0 0 0 0 0 0 0 0.25 0"/>
<feBlend mode="normal" in2="BackgroundImageFix" result="effect1_dropShadow_2855_89"/>
<feBlend mode="normal" in="SourceGraphic" in2="effect1_dropShadow_2855_89" result="shape"/>
</filter>
<filter id="filter1_i_2855_89" x="12.3334" y="9" width="133.333" height="85.8181" filterUnits="userSpaceOnUse" color-interpolation-filters="sRGB">
<feFlood flood-opacity="0" result="BackgroundImageFix"/>
<feBlend mode="normal" in="SourceGraphic" in2="BackgroundImageFix" result="shape"/>
<feColorMatrix in="SourceAlpha" type="matrix" values="0 0 0 0 0 0 0 0 0 0 0 0 0 0 0 0 0 0 127 0" result="hardAlpha"/>
<feOffset dy="4"/>
<feGaussianBlur stdDeviation="2"/>
<feComposite in2="hardAlpha" operator="arithmetic" k2="-1" k3="1"/>
<feColorMatrix type="matrix" values="0 0 0 0 0 0 0 0 0 0 0 0 0 0 0 0 0 0 0.25 0"/>
<feBlend mode="normal" in2="shape" result="effect1_innerShadow_2855_89"/>
</filter>
</defs>
</svg>
